<svg width="27" height="11" viewBox="0 0 27 11" fill="none" xmlns="http://www.w3.org/2000/svg">
<g clip-path="url(#clip0_265_15)">
<path d="M0 11L2.36791 0.73629H1.32172V0.678629L3.4184 0C3.40117 0.0754032 3.38395 0.150806 3.36243 0.22621C3.3409 0.301613 3.32798 0.381452 3.30646 0.465726C3.24188 0.767339 3.10411 1.35282 2.89315 2.21331L1.59726 7.72218H1.64031C1.98904 6.89718 2.36791 6.16532 2.7683 5.52218C3.17299 4.87903 3.57769 4.37782 3.98669 4.01855C4.39569 3.65927 4.77025 3.47742 5.11037 3.47742C5.3773 3.47742 5.58826 3.58831 5.74325 3.80565C5.89824 4.02298 5.97573 4.31573 5.97573 4.68387C5.97573 5.25161 5.82074 6.00121 5.51507 6.93266C5.20509 7.86411 4.8047 8.68468 4.30098 9.38992C3.80157 10.0952 3.2591 10.4456 2.68219 10.4456C2.39804 10.4456 2.09237 10.4012 1.77378 10.3169C1.45088 10.2327 1.16243 10.1306 0.90411 10.0198L0.835225 9.9754L0.0559687 11H0ZM2.81135 10.104C3.16008 10.104 3.5045 9.79355 3.83601 9.17258C4.17182 8.55161 4.44305 7.82419 4.65401 6.98145C4.86497 6.13871 4.9726 5.44234 4.9726 4.89677C4.9726 4.67056 4.93816 4.50202 4.86928 4.39113C4.80039 4.28024 4.70137 4.22702 4.57221 4.22702C4.33112 4.22702 4.02544 4.44436 3.65088 4.87903C3.27202 5.31371 2.87593 5.9125 2.45832 6.66653C2.0407 7.425 1.64031 8.26774 1.25284 9.19476C1.40783 9.40323 1.64031 9.60726 1.95029 9.80686C2.26027 10.0065 2.54442 10.104 2.81135 10.104Z" fill="black"/>
<path d="M6.98312 10.246L8.36081 4.28467L8.31776 4.27137C8.05944 4.43992 7.80973 4.68387 7.56864 4.99435C7.32324 5.30484 7.07353 5.73064 6.81952 6.27177L6.76355 6.25847C6.89271 5.73951 7.06492 5.27379 7.28018 4.86129C7.49545 4.44879 7.74085 4.125 8.01639 3.88992C8.29193 3.65484 8.58468 3.53508 8.89897 3.53508C9.01952 3.53508 9.11854 3.55282 9.20034 3.59274C9.28214 3.62822 9.33811 3.67258 9.36394 3.72137L8.42539 7.77984H8.46844C8.79134 7.00363 9.13146 6.28951 9.4931 5.6375C9.85474 4.98548 10.2207 4.46209 10.5866 4.06734C10.9526 3.67258 11.2884 3.47742 11.5941 3.47742H11.6759L11.4003 4.94113H11.3874C10.9483 4.93226 10.4919 5.19395 10.0226 5.72177C9.55337 6.25403 9.13146 6.90161 8.7569 7.67338C8.37803 8.44516 8.11541 9.16814 7.95611 9.8379L7.8614 10.2504H6.97881L6.98312 10.246Z" fill="black"/>
<path d="M13.2517 4.31567C12.9934 4.48422 12.7437 4.72817 12.5026 5.03865C12.2615 5.34913 12.0075 5.77494 11.7535 6.31607L11.6975 6.30276C11.8267 5.78381 11.9989 5.31809 12.2141 4.90559C12.4294 4.49309 12.6748 4.1693 12.9503 3.93422C13.2259 3.69913 13.5186 3.57938 13.8329 3.57938C13.9535 3.57938 14.0525 3.59712 14.1386 3.63704C14.2204 3.67696 14.2764 3.71688 14.3022 3.76567L12.8815 9.59833L12.9245 9.61163C13.1742 9.44309 13.4196 9.19914 13.6607 8.88865C13.9018 8.57817 14.1601 8.15236 14.4271 7.61123L14.483 7.62454C14.3453 8.1568 14.1687 8.62696 13.9578 9.03502C13.7468 9.44752 13.5014 9.77131 13.2259 10.0064C12.9503 10.2415 12.6576 10.3612 12.3433 10.3612C12.2228 10.3612 12.1194 10.3391 12.0333 10.2991C11.9472 10.2548 11.8869 10.2104 11.8611 10.1661L13.2948 4.33341L13.2517 4.3201V4.31567ZM14.2161 1.64551C14.0051 1.64551 13.8502 1.58784 13.7554 1.46809C13.6607 1.34833 13.6349 1.18422 13.6779 0.962441C13.7339 0.753973 13.8372 0.594296 13.9879 0.478973C14.1386 0.363651 14.3151 0.310425 14.5175 0.310425C14.7198 0.310425 14.8834 0.368086 14.9781 0.478973C15.0729 0.594296 15.0987 0.753973 15.0556 0.962441C14.9997 1.18865 14.9006 1.36163 14.7543 1.47252C14.6079 1.58784 14.4271 1.64107 14.2161 1.64107V1.64551Z" fill="black"/>
<path d="M16.1621 10.4589C15.8779 10.4589 15.6541 10.348 15.4948 10.1307C15.3355 9.91335 15.2537 9.61173 15.2537 9.22141C15.2537 8.66254 15.4043 7.91738 15.71 6.98593C16.0157 6.05448 16.4161 5.23391 16.9241 4.52867C17.4278 3.82343 17.9703 3.47302 18.5515 3.47302C18.8357 3.47302 19.1241 3.52625 19.4126 3.62827C19.701 3.73472 19.9464 3.85004 20.1488 3.98311L20.8936 0.731896H19.8474L19.8603 0.660928L21.9527 -0.00439453C21.9269 0.0887506 21.901 0.186331 21.8752 0.288347C21.8537 0.385928 21.8278 0.49238 21.7977 0.607702C21.7719 0.76738 21.7245 0.975847 21.6599 1.23311C21.5953 1.49036 21.5178 1.80972 21.4274 2.20004L19.7053 9.62504L19.7484 9.63835C19.9981 9.4698 20.2435 9.22585 20.4846 8.91536C20.7257 8.60488 20.984 8.17907 21.2509 7.63794L21.3069 7.65125C21.1691 8.1702 20.9969 8.63593 20.786 9.04843C20.575 9.46093 20.3296 9.78472 20.0541 10.0198C19.7785 10.2549 19.4858 10.3746 19.1715 10.3746C19.0509 10.3746 18.9476 10.3569 18.8615 10.317C18.7754 10.2771 18.7151 10.2327 18.6893 10.175L19.6278 6.21415H19.602C19.2619 7.03915 18.8873 7.76657 18.4783 8.40528C18.0693 9.04399 17.6646 9.5452 17.2599 9.90891C16.8552 10.2726 16.4936 10.4545 16.1707 10.4545L16.1621 10.4589ZM16.6572 9.70488C16.894 9.70488 17.1953 9.48754 17.5613 9.0573C17.9272 8.62706 18.3104 8.04157 18.7237 7.30528C19.137 6.56899 19.5245 5.76173 19.8818 4.89238C19.7785 4.75044 19.6537 4.5952 19.503 4.43109C19.3523 4.26698 19.1801 4.12061 18.9863 3.99641C18.7926 3.87222 18.6032 3.81012 18.4224 3.81012C18.0736 3.81012 17.7292 4.12061 17.3977 4.74157C17.0619 5.36254 16.7906 6.0944 16.5797 6.9327C16.3687 7.77544 16.2611 8.47182 16.2611 9.01738C16.2611 9.26133 16.2912 9.43875 16.3558 9.54077C16.4204 9.64722 16.5194 9.69601 16.6572 9.69601V9.70488Z" fill="black"/>
<path d="M23.1883 10.4589C22.8955 10.4589 22.6458 10.3968 22.4434 10.2726C22.2411 10.1484 22.0861 9.96213 21.9828 9.71375C21.8752 9.46536 21.8235 9.15488 21.8235 8.7823C21.8235 8.09923 21.9957 7.34076 22.3487 6.49802C22.6975 5.65528 23.1581 4.9456 23.7264 4.36012C24.2947 3.77907 24.8932 3.48633 25.5174 3.48633C25.9135 3.48633 26.2106 3.56617 26.4129 3.72141C26.6153 3.87665 26.7143 4.1073 26.7143 4.40891C26.7143 4.77705 26.5679 5.1452 26.2751 5.50891C25.9824 5.87262 25.526 6.23633 24.9061 6.60004C24.2861 6.96375 23.4939 7.31859 22.5296 7.65568L22.5855 7.44278C23.7781 6.9327 24.6047 6.40931 25.0654 5.87262C25.526 5.33592 25.7542 4.84802 25.7542 4.40447C25.7542 4.21375 25.7112 4.07181 25.6251 3.97867C25.5389 3.88552 25.4098 3.83673 25.2462 3.83673C24.8802 3.83673 24.5057 4.1073 24.1311 4.65286C23.7566 5.19842 23.4423 5.84157 23.1926 6.59117C22.9429 7.34076 22.8223 7.96617 22.8223 8.48068C22.8223 8.90649 22.8869 9.21697 23.0204 9.41657C23.1538 9.61617 23.3734 9.71375 23.6748 9.71375C23.8943 9.71375 24.1397 9.62504 24.411 9.44318C24.6822 9.26133 24.962 8.99076 25.2505 8.61818C25.5389 8.2456 25.8102 7.79318 26.0556 7.25649L26.0986 7.2831C25.9523 7.89963 25.7327 8.4452 25.4356 8.92423C25.1386 9.40326 24.7984 9.77584 24.411 10.0464C24.0192 10.317 23.6145 10.45 23.1926 10.45L23.1883 10.4589Z" fill="black"/>
</g>
<defs>
<clipPath id="clip0_265_15">
<rect width="26.7143" height="11" fill="white"/>
</clipPath>
</defs>
</svg>
