<?xml version="1.0" encoding="UTF-8"?><svg id="a" xmlns="http://www.w3.org/2000/svg" viewBox="0 0 140 140"><path d="M124.71,57.29l-3.49-27.19c-.73-13.59-12.12-24.25-25.93-24.25H44.48c-13.84,0-25.25,10.71-25.93,24.34l-3.25,27.1,.03,37.13c-.59,11.7,8.87,21.5,20.75,21.5H103.94c11.91,0,21.37-9.85,20.74-21.57l.03-37.06ZM36.39,94.65c-3.56,0-6.44-2.88-6.44-6.44s2.88-6.44,6.44-6.44,6.44,2.88,6.44,6.44-2.88,6.44-6.44,6.44Zm67.22,0c-3.56,0-6.44-2.88-6.44-6.44s2.88-6.44,6.44-6.44,6.44,2.88,6.44,6.44-2.88,6.44-6.44,6.44ZM28.81,52.78l2.4-19.44c.28-6.17,5.14-11.02,11.04-11.02h55.72c5.85,0,10.69,4.77,11.03,10.88l2.19,19.58H28.81Z" style="fill:#fff;"/><g><path d="M29.38,118.98h15.16v14.63c0,.3-.24,.53-.53,.53h-14.09c-.3,0-.53-.24-.53-.53v-14.63h0Z" style="fill:#fff;"/><path d="M95.46,118.98h15.16v14.63c0,.3-.24,.53-.53,.53h-14.09c-.3,0-.53-.24-.53-.53v-14.63h0Z" style="fill:#fff;"/></g></svg>