<?xml version="1.0" encoding="UTF-8"?><svg id="a" xmlns="http://www.w3.org/2000/svg" viewBox="0 0 140 140"><g><path d="M21.24,103.76h14.34v13.84c0,.28-.23,.51-.51,.51h-13.33c-.28,0-.51-.23-.51-.51v-13.84h0Z" style="fill:#fff;"/><path d="M104.42,103.76h14.34v13.84c0,.28-.23,.51-.51,.51h-13.33c-.28,0-.51-.23-.51-.51v-13.84h0Z" style="fill:#fff;"/></g><path d="M127.15,64.44c-1.98,0-3.75-1.21-4.48-3.04l-10.71-27.08c-2.97-7.5-10.21-12.42-18.28-12.42H47.29c-7.89,0-15.01,4.71-18.09,11.97l-11.74,27.64c-.76,1.78-2.5,2.93-4.43,2.93h-.18c-3.81,0-6.9,3.09-6.9,6.9v21.88c0,3.81,3.09,6.9,6.9,6.9H127.15c3.81,0,6.9-3.09,6.9-6.9v-21.88c0-3.81-3.09-6.9-6.9-6.9Zm-88.95,24.41c-3.36,0-6.09-2.73-6.09-6.09s2.73-6.09,6.09-6.09,6.09,2.73,6.09,6.09-2.73,6.09-6.09,6.09Zm63.6,0c-3.36,0-6.09-2.73-6.09-6.09s2.73-6.09,6.09-6.09,6.09,2.73,6.09,6.09-2.73,6.09-6.09,6.09ZM31.67,56.92l7.08-16.67c1.25-2.94,4.14-4.85,7.33-4.85h48.32c3.27,0,6.2,2,7.41,5.03l6.52,16.48H31.67Z" style="fill:#fff;"/></svg>