<svg width="20" height="20" viewBox="0 0 20 20" fill="none" xmlns="http://www.w3.org/2000/svg">
<path d="M10 1.875C5.5 1.875 1.875 5.5 1.875 10C1.875 14.5 5.5 18.125 10 18.125C14.5 18.125 18.125 14.5 18.125 10C18.125 9.125 18.0075 8.25375 17.695 7.44125L16.68 8.4375C16.805 8.9375 16.8756 9.4375 16.8756 10C16.8756 13.8125 13.8131 16.875 10.0006 16.875C6.18812 16.875 3.125 13.8125 3.125 10C3.125 6.1875 6.1875 3.125 10 3.125C11.875 3.125 13.5587 3.87125 14.7462 5.05875L15.625 4.18C14.1875 2.7425 12.1875 1.875 10 1.875ZM17.05 4.55L10 11.6019L7.325 8.92687L6.425 9.825L9.55 12.95L10 13.3788L10.45 12.9494L17.95 5.44937L17.05 4.54937V4.55Z" fill="#52A227"/>
</svg>
