<svg width="35" height="11" viewBox="0 0 35 11" fill="none" xmlns="http://www.w3.org/2000/svg">
<g clip-path="url(#clip0_265_9)">
<path d="M0.650455 11C0.396731 11 0.179913 10.9756 0 10.922L0.235271 9.89317L0.281402 9.87855C0.479768 9.95168 0.76117 10.0151 1.13022 10.0638C1.49928 10.1175 1.85449 10.1418 2.20047 10.1418C2.76328 10.1418 3.20614 10.0395 3.53829 9.83954C3.86582 9.63475 4.11955 9.35683 4.29023 8.99601C4.46092 8.6352 4.62238 8.15736 4.77 7.55275L5.68341 3.60328H5.63727C5.26361 4.51995 4.85765 5.32934 4.4194 6.03635C3.98115 6.74335 3.54752 7.2992 3.11388 7.69903C2.68024 8.09885 2.28351 8.29876 1.91907 8.29876C1.62383 8.29876 1.39317 8.17686 1.2271 7.93307C1.06103 7.68927 0.977989 7.35771 0.977989 6.94326C0.977989 6.3289 1.14406 5.50975 1.4716 4.48582C1.79913 3.46188 2.23738 2.55984 2.78634 1.78457C3.3307 1.00931 3.92579 0.624113 4.56702 0.624113C4.84381 0.624113 5.13905 0.682624 5.45275 0.79477C5.76644 0.911791 6.10782 1.05319 6.47225 1.2336L7.34414 0H7.41795L5.95558 6.52394C5.63266 7.95745 5.03756 9.06427 4.17029 9.83954C3.30302 10.6148 2.13128 11 0.655068 11H0.650455ZM2.46804 7.46011C2.7356 7.46011 3.06313 7.23094 3.45525 6.76773C3.84737 6.30452 4.26255 5.67066 4.7008 4.86613C5.13905 4.06161 5.54962 3.16933 5.93252 2.18927L5.90484 2.16002C5.69725 1.89184 5.45736 1.62855 5.18057 1.37988C4.90378 1.13121 4.64083 1.00443 4.3825 1.00443C3.9996 1.00443 3.62594 1.34574 3.26611 2.03324C2.90629 2.72074 2.61566 3.52527 2.38961 4.45168C2.16357 5.3781 2.04824 6.13874 2.04824 6.72872C2.04824 6.9969 2.08053 7.18706 2.14973 7.2992C2.21893 7.41135 2.32042 7.46498 2.45881 7.46498L2.46804 7.46011Z" fill="black"/>
<path d="M8.04533 8.06475L9.52154 1.51156L9.47541 1.49693C9.19862 1.68221 8.93105 1.95039 8.67272 2.2917C8.40977 2.63301 8.14221 3.1011 7.87003 3.69595L7.81006 3.68133C7.94845 3.11085 8.13298 2.59888 8.36364 2.14542C8.59429 1.69196 8.85724 1.33602 9.15249 1.0776C9.44773 0.819181 9.76142 0.687532 10.0982 0.687532C10.2274 0.687532 10.3335 0.707036 10.4211 0.750919C10.5088 0.794802 10.5687 0.838685 10.5964 0.892319L9.59074 5.35376H9.63687C9.98285 4.50048 10.3473 3.71546 10.7348 2.9987C11.1223 2.28195 11.5144 1.70659 11.9065 1.27264C12.2987 0.838684 12.6585 0.624146 12.986 0.624146H13.0737L12.7784 2.23319H12.7646C12.294 2.22344 11.805 2.51111 11.3022 3.09134C10.7994 3.67645 10.3473 4.38833 9.94595 5.23673C9.53999 6.08514 9.25859 6.87991 9.0879 7.61617L8.98641 8.06962H8.04072L8.04533 8.06475Z" fill="black"/>
<path d="M14.5545 8.28416C13.8856 8.28416 13.4012 8.08425 13.1059 7.68443C12.8107 7.28461 12.6631 6.71413 12.6631 5.97787C12.6631 5.24161 12.8292 4.41759 13.1659 3.57406C13.4981 2.73053 13.9502 2.0284 14.5176 1.46767C15.085 0.906947 15.6939 0.624146 16.3536 0.624146C17.0133 0.624146 17.4792 0.819181 17.7837 1.20925C18.0882 1.59932 18.2404 2.14542 18.2404 2.8378C18.2404 3.59844 18.0743 4.40783 17.7468 5.26599C17.4192 6.12415 16.9672 6.8409 16.4044 7.42113C15.8369 7.99649 15.2234 8.28904 14.5499 8.28904L14.5545 8.28416ZM14.7298 7.92335C15.2142 7.92335 15.6432 7.62592 16.0215 7.02618C16.3997 6.42645 16.695 5.71457 16.898 4.89055C17.1056 4.06165 17.207 3.35464 17.207 2.75978C17.207 2.16493 17.124 1.73585 16.9625 1.43354C16.8011 1.13124 16.5381 0.980085 16.1737 0.980085C15.6939 0.980085 15.2603 1.27264 14.882 1.86262C14.5037 2.4526 14.2085 3.14985 14.0055 3.95925C13.7979 4.76865 13.6964 5.49516 13.6964 6.12902C13.6964 6.76289 13.7795 7.18221 13.9409 7.47964C14.1024 7.77707 14.3653 7.92335 14.7298 7.92335Z" fill="black"/>
<path d="M20.6208 8.28416C19.9519 8.28416 19.4675 8.08425 19.1722 7.68443C18.877 7.28461 18.7294 6.71413 18.7294 5.97787C18.7294 5.24161 18.8954 4.41759 19.2322 3.57406C19.5644 2.73053 20.0164 2.0284 20.5839 1.46767C21.1513 0.906947 21.7602 0.624146 22.4199 0.624146C23.0796 0.624146 23.5455 0.819181 23.85 1.20925C24.1544 1.59932 24.3067 2.14542 24.3067 2.8378C24.3067 3.59844 24.1406 4.40783 23.8131 5.26599C23.4855 6.12415 23.0334 6.8409 22.4706 7.42113C21.9032 7.99649 21.2851 8.28904 20.6162 8.28904L20.6208 8.28416ZM20.7961 7.92335C21.2758 7.92335 21.7095 7.62592 22.0877 7.02618C22.466 6.42645 22.7613 5.71457 22.9642 4.89055C23.1718 4.06165 23.2733 3.35464 23.2733 2.75978C23.2733 2.16493 23.1903 1.73585 23.0288 1.43354C22.8674 1.13124 22.6044 0.980085 22.24 0.980085C21.7602 0.980085 21.3266 1.27264 20.9483 1.86262C20.57 2.4526 20.2748 3.14985 20.0718 3.95925C19.8688 4.76865 19.7627 5.49516 19.7627 6.12902C19.7627 6.76289 19.8458 7.18221 20.0072 7.47964C20.1687 7.77707 20.4316 7.92335 20.7961 7.92335Z" fill="black"/>
<path d="M25.2294 8.06471L26.7056 1.52615L26.6595 1.51152C26.3919 1.69681 26.129 1.96498 25.8706 2.30629C25.6123 2.6476 25.3355 3.11569 25.0495 3.71055L24.9895 3.69592C25.1371 3.11569 25.3216 2.59397 25.5523 2.14539C25.7784 1.69193 26.0413 1.33599 26.3365 1.07757C26.6318 0.819146 26.9455 0.687497 27.2822 0.687497C27.4114 0.687497 27.5221 0.707001 27.6144 0.750884C27.7067 0.789891 27.7712 0.843526 27.7989 0.906912L26.7794 5.35372H26.8255C27.1392 4.54432 27.5083 3.77393 27.9327 3.0523C28.3571 2.33067 28.7861 1.74069 29.2244 1.28723C29.6626 0.833774 30.064 0.609483 30.4284 0.609483C30.7929 0.609483 31.0189 0.75576 31.1435 1.05319C31.268 1.35062 31.2496 1.78457 31.0927 2.35505L30.2946 5.34885H30.3408C30.6545 4.53945 31.0235 3.76906 31.4387 3.03767C31.8585 2.31117 32.2829 1.72119 32.7211 1.2726C33.1594 0.824022 33.5515 0.599731 33.8929 0.599731C34.2573 0.599731 34.5018 0.750884 34.6218 1.05319C34.7463 1.35549 34.7279 1.8187 34.571 2.44282L33.2886 7.38697L33.3347 7.40159C33.6023 7.21631 33.8652 6.94814 34.1235 6.60682C34.3819 6.26551 34.6587 5.79743 34.9447 5.20257L35.0047 5.2172C34.857 5.78767 34.6679 6.29964 34.4419 6.7531C34.2158 7.20656 33.9529 7.5625 33.6576 7.82092C33.3624 8.07934 33.0487 8.21099 32.7119 8.21099C32.5828 8.21099 32.472 8.19149 32.3798 8.1476C32.2875 8.10372 32.2229 8.05496 32.1952 7.99158L33.6438 2.40381C33.7314 2.0625 33.7499 1.81383 33.6945 1.66267C33.6392 1.51152 33.5377 1.43838 33.3901 1.43838C33.0948 1.43838 32.6889 1.7992 32.1814 2.52083C31.6694 3.24246 31.1804 4.10062 30.7144 5.08555C30.2485 6.07535 29.9348 6.914 29.778 7.61126L29.6765 8.05009H28.7308L30.1332 2.40381C30.2208 2.0625 30.2393 1.81383 30.1931 1.66267C30.1424 1.51152 30.0409 1.43838 29.8841 1.43838C29.5888 1.43838 29.1875 1.7992 28.68 2.52083C28.1726 3.24246 27.6882 4.10062 27.2177 5.0953C26.7517 6.08998 26.4334 6.92863 26.2673 7.61613L26.1797 8.05496H25.234L25.2294 8.06471Z" fill="black"/>
</g>
<defs>
<clipPath id="clip0_265_9">
<rect width="35" height="11" fill="white"/>
</clipPath>
</defs>
</svg>
