<?xml version="1.0" encoding="UTF-8"?><svg id="a" xmlns="http://www.w3.org/2000/svg" viewBox="0 0 140 140"><path d="M69.99,0C42.5-.01,20.29,22.08,20.25,49.42c-.02,12.4,5.08,22.98,12.75,32.01,14,16.47,26.26,33.81,32.94,54.62,.6,1.88,1.5,4.01,4.09,3.95,2.81-.07,3.57-2.46,4.24-4.49,6.28-19.04,16.77-35.49,30.02-50.43,7.88-8.88,14.2-19.11,15.26-31.13C122.13,24.65,98.97-.4,69.99,0Zm16.91,49.88c-.07,9.04-8.03,16.96-16.99,16.87-9.03-.08-16.88-8.02-16.84-17.04,.03-9.01,8-16.91,17.01-16.87,8.99,.04,16.89,8.04,16.82,17.03Z" style="fill:#fff;"/></svg>