<svg width="15" height="15" viewBox="0 0 15 15" fill="none" xmlns="http://www.w3.org/2000/svg">
<g clip-path="url(#clip0_630_33)">
<path d="M1.77422 6.13752C2.05708 5.61894 2.72136 5.71752 3.25279 5.85466C3.85708 6.00894 4.30279 6.51466 4.75708 6.81466C5.34851 7.20466 5.26279 7.25609 5.80708 7.59037C6.44565 7.98894 6.63851 7.95895 7.10565 8.3318C7.37136 8.54609 7.64993 8.77323 7.83422 9.1718C7.89851 9.30894 8.21565 9.99466 7.88565 10.4104C7.70565 10.6375 7.41851 10.6761 7.40136 10.6804C6.98993 10.7275 6.77136 10.3932 5.92708 9.79752C5.61422 9.57466 5.36565 9.42895 5.08708 9.2618C4.10565 8.67466 4.04136 8.77323 3.76279 8.49466C3.22708 7.95894 3.30422 7.80466 2.78565 7.43609C2.42136 7.17894 2.16422 7.14895 1.85565 6.75895C1.76565 6.64752 1.69708 6.2918 1.77851 6.1418L1.77422 6.13752Z" fill="white"/>
<path d="M7.31987 10.83C7.02415 10.83 6.80558 10.6543 6.45844 10.3843C6.29558 10.2557 6.09415 10.0971 5.83701 9.91714C5.52415 9.69857 5.2713 9.54428 5.00558 9.38571C4.54701 9.11143 4.28987 8.98714 4.11844 8.90571C3.92558 8.81143 3.81844 8.76 3.65558 8.59714C3.41558 8.35714 3.2913 8.18571 3.19272 8.05286C3.06415 7.87714 2.97415 7.75286 2.69558 7.55571C2.57558 7.47 2.46844 7.41428 2.36987 7.35857C2.15987 7.24286 1.95844 7.13143 1.73558 6.84857C1.61558 6.69857 1.52987 6.28286 1.64558 6.06857C2.01844 5.38714 2.94415 5.62286 3.2913 5.71286C3.73701 5.82857 4.1013 6.12 4.42272 6.37714C4.56415 6.49286 4.7013 6.6 4.83415 6.69C5.13415 6.88714 5.26701 7.00286 5.38701 7.10143C5.50701 7.20857 5.61415 7.29857 5.88415 7.46143C6.15844 7.62857 6.34701 7.71857 6.50987 7.8C6.72844 7.90286 6.91701 7.99286 7.1913 8.21571C7.44415 8.41714 7.75701 8.67 7.96272 9.10714C8.23272 9.69 8.24558 10.1829 7.99701 10.5C7.77844 10.77 7.44844 10.8171 7.41415 10.8214C7.37987 10.8214 7.34987 10.8257 7.31987 10.8257V10.83ZM1.90273 6.20571C1.85558 6.29143 1.90273 6.58714 1.96701 6.66428C2.1513 6.9 2.30987 6.98571 2.5113 7.09714C2.62273 7.15714 2.73844 7.22143 2.86701 7.31143C3.17987 7.53428 3.29558 7.69286 3.42844 7.87286C3.52701 8.01 3.63844 8.16 3.8613 8.38286C3.98987 8.51143 4.05844 8.54571 4.24272 8.63143C4.41844 8.71714 4.67987 8.84143 5.1513 9.12428C5.4213 9.28714 5.68272 9.44143 5.99987 9.66857C6.26558 9.85286 6.46701 10.0157 6.63415 10.1443C7.01987 10.4486 7.15701 10.5514 7.37558 10.5257C7.37558 10.5257 7.61987 10.4957 7.76558 10.3114C7.9413 10.0929 7.91558 9.69428 7.69701 9.22714C7.5213 8.85 7.24701 8.63143 7.00701 8.43857C6.75844 8.23714 6.5913 8.16 6.3813 8.06143C6.20987 7.98 6.01272 7.88571 5.72558 7.71C5.43844 7.53 5.31844 7.43143 5.19415 7.32C5.07844 7.21714 4.95415 7.11428 4.6713 6.93C4.52558 6.83571 4.38415 6.72 4.23415 6.6C3.9213 6.34714 3.59558 6.09 3.20987 5.99143C2.4813 5.80714 2.07844 5.87143 1.89415 6.20571H1.90273Z" fill="#030000"/>
<path d="M0.98579 11.0961C0.98579 10.8176 1.56865 10.4104 2.03579 10.2047C2.56293 9.97328 3.03865 9.92614 3.54008 9.88328C4.1915 9.82757 4.15722 9.91328 4.74436 9.84899C5.43436 9.77185 5.55865 9.64328 6.10722 9.64757C6.42436 9.64757 6.75436 9.65614 7.11436 9.84042C7.23865 9.90471 7.86008 10.2176 7.8515 10.7104C7.8515 10.9761 7.66293 11.169 7.65008 11.1819C7.38008 11.4519 7.20436 11.5119 6.24865 11.5633C5.89293 11.5804 5.45579 11.4347 5.15579 11.4733C4.11008 11.6061 4.11865 11.7133 3.75865 11.6704C3.06436 11.589 3.03436 11.5676 2.4515 11.5976C2.04008 11.619 1.78293 11.7861 1.33722 11.679C1.20865 11.649 0.977218 11.4433 0.981504 11.0961H0.98579Z" fill="white"/>
<path d="M1.62846 11.8633C1.52989 11.8633 1.42275 11.8504 1.30704 11.8247C1.11418 11.7776 0.835607 11.5162 0.839893 11.0962C0.848464 10.6633 1.66275 10.209 1.97561 10.0719C2.53704 9.82758 3.03846 9.78044 3.52704 9.74187C3.85704 9.71187 4.01989 9.72044 4.16132 9.72901C4.31132 9.73758 4.43989 9.74187 4.72704 9.70758C5.02275 9.6733 5.21132 9.63044 5.37418 9.59615C5.59275 9.54473 5.76418 9.50187 6.10704 9.50616C6.40704 9.50616 6.77989 9.51044 7.17846 9.71616C7.70989 9.98616 8.00132 10.3419 7.99704 10.719C7.99704 11.0319 7.79561 11.2504 7.75275 11.289C7.43989 11.6019 7.21704 11.6619 6.25704 11.7176C6.07275 11.7262 5.87132 11.6962 5.67846 11.6662C5.48989 11.6362 5.30989 11.6062 5.17704 11.6233C4.68846 11.6833 4.43132 11.7433 4.25989 11.7819C4.06704 11.8247 3.95561 11.8504 3.74561 11.8247L3.49275 11.7947C3.03418 11.739 2.94846 11.7262 2.45989 11.7519C2.31846 11.7604 2.19846 11.7862 2.07846 11.8119C1.93704 11.8419 1.79561 11.8719 1.62846 11.8719V11.8633ZM3.94275 10.0119C3.84418 10.0119 3.72418 10.0162 3.54846 10.0333C3.08561 10.0719 2.60561 10.1147 2.09132 10.3419C1.55989 10.5733 1.13132 10.9462 1.13132 11.1004C1.12704 11.3876 1.31989 11.529 1.37132 11.5419C1.61989 11.6019 1.80418 11.5633 2.01418 11.5204C2.14704 11.4947 2.27989 11.4647 2.44275 11.4562C2.95704 11.4304 3.05561 11.4433 3.52704 11.499L3.77561 11.529C3.93846 11.5504 4.01132 11.5333 4.19561 11.4904C4.37132 11.4519 4.63275 11.3919 5.13846 11.3276C5.30989 11.3062 5.51132 11.3362 5.72132 11.3704C5.90132 11.4004 6.08561 11.4304 6.23989 11.4176C7.16989 11.3662 7.30704 11.3104 7.54275 11.079C7.54704 11.0747 7.69704 10.9162 7.70132 10.7104C7.70132 10.4576 7.46561 10.1876 7.04132 9.9733C6.70275 9.80187 6.39846 9.79758 6.09846 9.79758H6.06846C5.79418 9.79758 5.63132 9.83187 5.43418 9.87901C5.26275 9.91758 5.06561 9.96044 4.75275 9.99901C4.43989 10.0376 4.29418 10.029 4.14418 10.0204C4.08418 10.0204 4.01989 10.0162 3.93846 10.0162L3.94275 10.0119Z" fill="#030000"/>
<path d="M5.67438 2.17733C5.93152 2.0659 6.45009 2.63162 6.73295 3.0559C7.05009 3.5359 7.17866 3.99876 7.30724 4.48305C7.47438 5.11305 7.38438 5.0959 7.54724 5.66162C7.74009 6.33019 7.89009 6.42876 7.98009 6.96876C8.03152 7.28162 8.08295 7.60733 7.96295 7.99305C7.92009 8.1259 7.71866 8.79019 7.23438 8.87162C6.96866 8.91448 6.75009 8.76447 6.73724 8.75162C6.42438 8.53305 6.48438 8.16447 6.27009 7.23447C6.18866 6.88733 6.11152 6.63447 6.02581 6.34733C5.71724 5.34019 5.61009 5.3659 5.59295 5.0059C5.55438 4.30733 5.70438 4.25162 5.57581 3.67733C5.48581 3.27447 5.32724 3.09876 5.35724 2.64019C5.36581 2.50733 5.54152 2.23305 5.68724 2.16876L5.67438 2.17733Z" fill="white"/>
<path d="M7.13177 9.02611C6.87035 9.02611 6.66892 8.88897 6.64749 8.87183C6.38178 8.68326 6.33463 8.41754 6.26177 7.97183C6.22749 7.78326 6.18892 7.55183 6.12463 7.26897C6.04749 6.92612 5.96606 6.66897 5.88035 6.3904C5.73463 5.91897 5.63606 5.67469 5.56749 5.51612C5.49035 5.33183 5.44749 5.22897 5.43892 5.01469C5.42177 4.70183 5.43892 4.50897 5.45606 4.35469C5.47749 4.15754 5.49035 4.01612 5.42177 3.71612C5.39177 3.58754 5.35749 3.4804 5.3232 3.38183C5.25035 3.17183 5.18178 2.9704 5.2032 2.63612C5.21606 2.45612 5.42177 2.1304 5.61892 2.0404C6.07749 1.83469 6.8232 2.92754 6.85749 2.97469C7.19606 3.48469 7.32463 3.97326 7.44892 4.44469C7.53463 4.76183 7.55178 4.92469 7.5732 5.06612C7.59035 5.21183 7.60749 5.3404 7.68892 5.61897C7.77035 5.90183 7.84749 6.08183 7.91177 6.23612C7.99749 6.44183 8.07035 6.62183 8.12606 6.94326C8.1732 7.23897 8.2332 7.60754 8.10463 8.03612C7.92892 8.60612 7.62892 8.95326 7.26035 9.01326C7.21749 9.02183 7.17892 9.02183 7.14035 9.02183L7.13177 9.02611ZM5.75606 2.30612C5.75606 2.30612 5.73892 2.30612 5.73463 2.30612C5.64035 2.34897 5.49892 2.57612 5.49463 2.64897C5.47749 2.92326 5.5332 3.07754 5.60177 3.27897C5.64035 3.38612 5.67892 3.50183 5.7132 3.64326C5.79035 3.9904 5.7732 4.1704 5.75178 4.37612C5.73463 4.5304 5.71749 4.70183 5.73463 4.99326C5.7432 5.1604 5.76892 5.22469 5.84178 5.4004C5.91035 5.56754 6.0132 5.81612 6.1632 6.3004C6.24892 6.57897 6.33035 6.84469 6.41178 7.19612C6.48035 7.48754 6.51892 7.72326 6.5532 7.91612C6.63035 8.35754 6.66463 8.51612 6.8232 8.62754C6.8232 8.62754 7.0032 8.75183 7.2132 8.72183C7.46606 8.67897 7.68463 8.40469 7.82606 7.94612C7.93749 7.58183 7.88606 7.26897 7.83892 6.98612C7.79178 6.69897 7.72749 6.5404 7.64606 6.34326C7.57749 6.1804 7.50035 5.99183 7.41463 5.69612C7.32463 5.39612 7.30749 5.2504 7.28606 5.1004C7.26892 4.95897 7.25177 4.81326 7.17035 4.51326C7.05035 4.06326 6.93035 3.6004 6.61749 3.12897C6.2832 2.62326 5.88892 2.29754 5.76463 2.29754L5.75606 2.30612Z" fill="#030000"/>
<path d="M14.0743 14.0351C13.0671 13.3194 12.0043 12.4837 10.9243 11.5151C10.3971 11.0437 9.90426 10.5722 9.44141 10.1094" fill="white"/>
<path d="M13.9928 14.1554C12.8956 13.3754 11.8328 12.5225 10.8299 11.6268C10.3242 11.1725 9.82277 10.6968 9.34277 10.2126L9.55277 10.0068C10.0285 10.4868 10.5256 10.9583 11.0271 11.4083C12.0171 12.2997 13.0756 13.144 14.1642 13.9154L13.9928 14.1554Z" fill="#030000"/>
<path d="M7.42285 10.5211C7.61571 10.5811 7.96714 10.8168 8.37428 10.744C9.00428 10.6325 9.71142 9.90395 9.97285 9.22681C10.1829 8.67824 9.98142 8.32252 9.92571 8.12109C9.68571 8.14681 8.93571 8.26252 8.27999 8.88395C7.60714 9.52252 7.45714 10.2854 7.42285 10.5211Z" fill="white"/>
<path d="M8.22015 10.9068C7.94157 10.9068 7.69729 10.7997 7.52586 10.7225C7.47014 10.6968 7.41872 10.6754 7.37586 10.6625L7.25586 10.6239L7.273 10.4997C7.333 10.1225 7.52586 9.39394 8.17729 8.78108C8.81157 8.18108 9.53586 8.02251 9.90872 7.97965L10.033 7.9668L10.0673 8.0868C10.0759 8.1168 10.0887 8.1468 10.1016 8.18537C10.1787 8.40394 10.3073 8.77251 10.1101 9.28251C9.84872 9.95965 9.12014 10.7654 8.40015 10.8897C8.34015 10.9025 8.28015 10.9068 8.22015 10.9068ZM7.58586 10.4311L7.64157 10.4568C7.82586 10.5382 8.07443 10.6497 8.34872 10.6025C8.893 10.5082 9.57443 9.8568 9.83586 9.17537C9.99443 8.76823 9.89586 8.48965 9.823 8.28394C9.46729 8.33965 8.893 8.5068 8.37872 8.99108C7.85157 9.48823 7.65872 10.0668 7.58586 10.4268V10.4311Z" fill="#030000"/>
<path d="M0.99772 8.5077C0.912006 8.79913 1.49486 9.34342 1.95772 9.64342C2.48058 9.98199 2.98201 10.1148 3.50915 10.252C4.19486 10.4277 4.17343 10.3291 4.79058 10.5006C5.51486 10.7063 5.62201 10.8648 6.21343 10.9548C6.55201 11.0063 6.90772 11.0577 7.32343 10.9248C7.46915 10.8777 8.18915 10.6506 8.27058 10.1234C8.31772 9.83627 8.15058 9.60056 8.14201 9.58342C7.90201 9.24913 7.50343 9.31342 6.49201 9.09056C6.11486 9.00913 5.84058 8.92342 5.52772 8.83342C4.43058 8.5077 4.46058 8.39199 4.07058 8.37484C3.31201 8.34056 3.33343 8.32342 2.71629 8.18627C2.27915 8.09199 2.14629 7.90342 1.44343 8.09627C1.30629 8.13484 1.08343 8.19913 0.99772 8.49913V8.5077Z" fill="white"/>
<path d="M6.76671 11.156C6.55242 11.156 6.35956 11.126 6.18814 11.1003C5.84099 11.0446 5.64814 10.9675 5.42099 10.8775C5.24956 10.8089 5.05671 10.7275 4.74814 10.6418C4.44385 10.556 4.30671 10.5389 4.14814 10.5218C3.99385 10.5046 3.81814 10.4832 3.47099 10.3932C2.95671 10.2646 2.42956 10.1275 1.87671 9.76747C1.46956 9.50175 0.732421 8.8889 0.856707 8.46461C0.968135 8.0789 1.27671 7.99747 1.40528 7.9589C1.97099 7.80461 2.20242 7.87747 2.47242 7.96747C2.55385 7.99318 2.63956 8.02318 2.74671 8.04461L2.99099 8.09604C3.38099 8.18175 3.44956 8.1989 4.07956 8.22461C4.31099 8.23318 4.42242 8.28033 4.61956 8.36175C4.79528 8.43033 5.05671 8.53747 5.57099 8.69175C5.87099 8.78175 6.15385 8.86318 6.52671 8.94461C6.83528 9.01318 7.08385 9.05175 7.28956 9.08604C7.76956 9.16318 8.06099 9.21033 8.26242 9.49318C8.27099 9.50604 8.47671 9.7889 8.42099 10.1403C8.35671 10.5389 7.98385 10.8646 7.37099 11.0575C7.15671 11.126 6.95528 11.1475 6.77099 11.1475L6.76671 11.156ZM1.13528 8.55033C1.09242 8.69604 1.48242 9.16318 2.03528 9.52318C2.54956 9.85747 3.05528 9.98604 3.54385 10.1103C3.86956 10.1918 4.02814 10.2132 4.18242 10.2303C4.34956 10.2518 4.50385 10.2689 4.82956 10.3589C5.15528 10.4489 5.35671 10.5303 5.53242 10.6032C5.74671 10.6889 5.91814 10.7618 6.23528 10.8089C6.53956 10.856 6.88242 10.9118 7.28099 10.7832C7.77385 10.6289 8.08242 10.376 8.12528 10.1018C8.16385 9.87033 8.02242 9.67318 8.02242 9.67318C7.89813 9.49747 7.72242 9.46318 7.24242 9.38175C7.03242 9.34747 6.77528 9.30461 6.46242 9.23604C6.08099 9.15032 5.79385 9.06461 5.48528 8.97461C4.95814 8.81604 4.68814 8.7089 4.50814 8.63604C4.31528 8.5589 4.24671 8.5289 4.06242 8.52032C3.40671 8.49032 3.31242 8.4689 2.92242 8.38318L2.68242 8.33175C2.56671 8.30604 2.46814 8.27604 2.37814 8.24604C2.13814 8.16461 1.96242 8.1089 1.48242 8.24175C1.33671 8.28033 1.19956 8.33604 1.13528 8.54604V8.55033Z" fill="#030000"/>
<path d="M9.16785 0.99452C8.88928 0.955949 8.54214 1.65023 8.38785 2.13452C8.21214 2.68738 8.22071 3.16738 8.22928 3.67309C8.24214 4.32881 8.32785 4.28595 8.32357 4.88166C8.32357 5.58023 8.20357 5.71738 8.26785 6.26595C8.30643 6.58309 8.34928 6.91309 8.56785 7.25166C8.645 7.36738 9.02643 7.95881 9.51928 7.90309C9.78928 7.87309 9.96071 7.66738 9.96928 7.65452C10.2093 7.35452 10.0507 7.01595 9.99928 6.05595C9.98214 5.70023 9.98643 5.43023 9.99071 5.13023C10.0079 4.06738 10.1193 4.06738 10.0379 3.71166C9.87928 3.02595 9.47214 3.05166 9.43785 2.46452C9.41214 2.04881 9.605 1.81738 9.45071 1.38452C9.40785 1.26023 9.31785 1.01166 9.15928 0.990234L9.16785 0.99452Z" fill="white"/>
<path d="M9.45891 8.05729C9.11177 8.05729 8.75605 7.80443 8.45177 7.34157C8.20319 6.96014 8.16034 6.58729 8.12605 6.28729C8.08748 5.96157 8.10891 5.76871 8.13462 5.54586C8.15605 5.37443 8.17748 5.18586 8.17748 4.88586C8.17748 4.59443 8.16034 4.46586 8.13891 4.32014C8.11748 4.17443 8.09177 4.01157 8.0832 3.68157C8.07462 3.193 8.06177 2.683 8.25034 2.09586C8.26748 2.04014 8.66177 0.775857 9.18891 0.853C9.4332 0.887286 9.54034 1.183 9.59605 1.33729C9.70319 1.64157 9.66462 1.85586 9.62605 2.06586C9.60462 2.19443 9.58319 2.31443 9.59177 2.46014C9.60462 2.713 9.69462 2.82443 9.81891 2.97443C9.94319 3.12443 10.1018 3.313 10.1875 3.68157C10.2346 3.89157 10.2218 4.003 10.2003 4.20443C10.1832 4.37586 10.1532 4.64157 10.1446 5.13871C10.1403 5.42586 10.1318 5.70014 10.1532 6.05586C10.1703 6.34729 10.1961 6.583 10.2175 6.77586C10.2689 7.22586 10.2946 7.50014 10.0932 7.753C10.0718 7.783 9.86605 8.023 9.54462 8.05729C9.51891 8.05729 9.49319 8.06157 9.46319 8.06157L9.45891 8.05729ZM9.14177 1.14014C9.03034 1.14014 8.72177 1.57729 8.52891 2.18157C8.35748 2.72157 8.36605 3.20586 8.37891 3.673C8.38319 3.98586 8.40891 4.13157 8.43034 4.273C8.45605 4.42729 8.47748 4.56871 8.4732 4.88586C8.4732 5.19871 8.44748 5.40014 8.43034 5.58014C8.40462 5.79443 8.38748 5.96157 8.42177 6.25729C8.45177 6.54014 8.49034 6.86157 8.70034 7.183C8.96605 7.59014 9.24891 7.79157 9.51034 7.76586C9.72034 7.74014 9.86177 7.56871 9.86177 7.56871C9.98177 7.41871 9.97319 7.25586 9.92177 6.80586C9.90034 6.60871 9.87462 6.36871 9.85748 6.073C9.83605 5.70871 9.84462 5.43014 9.84891 5.13443C9.85748 4.62443 9.88748 4.35443 9.90891 4.17443C9.93034 3.98586 9.93891 3.913 9.90034 3.75014C9.83177 3.45014 9.71177 3.30443 9.59605 3.163C9.45891 3.00014 9.31748 2.82871 9.30034 2.48157C9.29177 2.30157 9.31748 2.15157 9.33891 2.01871C9.3732 1.82157 9.39891 1.66729 9.32177 1.44014C9.23177 1.19157 9.17605 1.14871 9.15034 1.14443H9.14177V1.14014Z" fill="#030000"/>
<path d="M10.2297 1.62414C9.95542 1.55557 9.53971 2.207 9.32971 2.67414C9.09828 3.20557 9.05114 3.68557 9.00828 4.187C8.95257 4.84271 9.03828 4.80843 8.97399 5.39986C8.89685 6.09414 8.76828 6.21843 8.77257 6.77128C8.77257 7.08843 8.78114 7.42271 8.96542 7.787C9.02971 7.91128 9.34685 8.537 9.83971 8.537C10.1097 8.537 10.2983 8.39985 10.3111 8.387C10.4269 8.27985 10.6326 8.18128 10.684 7.22128C10.7054 6.86557 10.6026 6.47128 10.5683 6.17128C10.4311 5.07843 10.5297 4.83843 10.4869 4.47414C10.4011 3.77557 10.3154 3.707 10.3454 3.11986C10.3669 2.70414 10.5811 2.49414 10.474 2.04843C10.444 1.91986 10.384 1.667 10.2297 1.62843V1.62414Z" fill="white"/>
<path d="M9.83981 8.68318C9.32981 8.68318 8.99124 8.16461 8.83695 7.85604C8.63124 7.45318 8.62695 7.08032 8.62695 6.77604C8.62695 6.44604 8.66981 6.25747 8.71695 6.03889C8.75552 5.87175 8.79838 5.68318 8.82838 5.38747C8.86267 5.09604 8.8541 4.96747 8.84981 4.81747C8.84124 4.67175 8.83695 4.5089 8.86267 4.1789C8.90553 3.69032 8.94838 3.18461 9.19695 2.6189C9.25267 2.49461 9.71553 1.47461 10.187 1.47461C10.2127 1.47461 10.2384 1.47461 10.2641 1.48318C10.5041 1.54318 10.5812 1.86032 10.6155 2.01461C10.6884 2.32318 10.6284 2.53747 10.5684 2.7389C10.5341 2.86318 10.4998 2.9789 10.4912 3.12461C10.4741 3.4889 10.4998 3.6389 10.5427 3.89175C10.5684 4.03318 10.5984 4.20461 10.6284 4.45747C10.6455 4.59889 10.6412 4.72318 10.637 4.86889C10.6284 5.12175 10.6198 5.46461 10.7055 6.15032C10.7184 6.23604 10.7312 6.33032 10.7484 6.42461C10.7912 6.67318 10.8384 6.95604 10.8255 7.22604C10.7784 8.10032 10.607 8.3189 10.4312 8.4689C10.3755 8.52032 10.1484 8.67889 9.83553 8.67889L9.83981 8.68318ZM10.1827 1.76604C10.0627 1.76604 9.7241 2.15604 9.46695 2.73461C9.23981 3.25318 9.19695 3.73318 9.15838 4.20032C9.13267 4.51318 9.13695 4.6589 9.14552 4.80032C9.1541 4.95461 9.15838 5.10032 9.1241 5.41318C9.08981 5.72604 9.04267 5.92318 9.0041 6.09889C8.95695 6.30889 8.91838 6.47604 8.92267 6.76747C8.92267 7.06747 8.92695 7.37604 9.10267 7.7189C9.20552 7.92032 9.47981 8.38747 9.8441 8.38747C10.0627 8.38747 10.2212 8.27175 10.2212 8.27175L10.247 8.24604C10.3412 8.16461 10.4955 8.02747 10.5427 7.20889C10.5555 6.97318 10.5084 6.70747 10.4698 6.47604C10.4527 6.37318 10.4355 6.2789 10.427 6.1889C10.337 5.48175 10.3455 5.12175 10.3541 4.86032C10.3541 4.72318 10.3627 4.61175 10.3455 4.49175C10.3155 4.24747 10.2855 4.08032 10.2598 3.94318C10.2127 3.68175 10.1827 3.50604 10.2041 3.11175C10.2127 2.93175 10.2555 2.78604 10.2941 2.65747C10.3498 2.46461 10.3927 2.31461 10.337 2.08318C10.2727 1.81318 10.217 1.77461 10.1955 1.77032C10.1955 1.77032 10.187 1.77032 10.1827 1.77032V1.76604Z" fill="#030000"/>
<path d="M7.74415 2.10938C7.4613 2.10938 7.20844 2.83795 7.11844 3.34366C7.01558 3.91366 7.08415 4.38937 7.1613 4.8908C7.25987 5.54223 7.33701 5.48652 7.41415 6.07795C7.50415 6.77223 7.40558 6.92223 7.54273 7.45795C7.61987 7.76652 7.70558 8.08795 7.9713 8.39652C8.0613 8.50366 8.51987 9.03509 8.99987 8.91509C9.2613 8.8508 9.40701 8.62366 9.41558 8.60652C9.61701 8.2808 9.41558 7.96366 9.23987 7.0208C9.17558 6.66937 9.14558 6.40366 9.1113 6.10366C8.9913 5.04937 9.10273 5.03223 8.97416 4.68937C8.72558 4.02937 8.32701 4.1108 8.21558 3.53223C8.13844 3.12509 8.29701 2.87223 8.08701 2.4608C8.02701 2.34509 7.90701 2.10938 7.74844 2.10938H7.74415Z" fill="white"/>
<path d="M8.85422 9.07756C8.53279 9.07756 8.18565 8.87184 7.85565 8.48613C7.56422 8.14327 7.46993 7.77898 7.39708 7.48756C7.31565 7.17041 7.31565 6.97327 7.31136 6.75041C7.31136 6.57898 7.30708 6.38613 7.26851 6.09041C7.22993 5.79898 7.19565 5.6747 7.15279 5.53327C7.11422 5.39184 7.06708 5.23756 7.01565 4.90756C6.94279 4.41898 6.86565 3.91756 6.97279 3.31327C6.98136 3.25756 7.22136 1.95898 7.73993 1.95898C7.98851 1.95898 8.12993 2.24184 8.20708 2.39184C8.35279 2.6747 8.33993 2.89327 8.33136 3.10756C8.32708 3.23613 8.31851 3.36041 8.34851 3.50184C8.39565 3.75041 8.49851 3.84898 8.64422 3.98184C8.78993 4.1147 8.96565 4.28184 9.09851 4.63756C9.17565 4.83898 9.17565 4.95041 9.17993 5.15184C9.17993 5.32756 9.18851 5.58898 9.24422 6.08184C9.28279 6.40756 9.30851 6.65613 9.37279 6.99041C9.42422 7.27756 9.48422 7.50898 9.52708 7.69756C9.63422 8.13898 9.69851 8.4047 9.52708 8.68327C9.50993 8.71327 9.33851 8.97898 9.02136 9.05613C8.96136 9.06898 8.90565 9.07756 8.84565 9.07756H8.85422ZM7.73993 2.2547C7.62851 2.2547 7.37565 2.73041 7.25993 3.36898C7.16136 3.92613 7.23422 4.40184 7.30279 4.86898C7.34993 5.17756 7.38851 5.31898 7.43136 5.45613C7.47422 5.60613 7.51708 5.74756 7.55565 6.06041C7.59422 6.37327 7.59851 6.5747 7.60279 6.7547C7.60279 6.96898 7.61136 7.14041 7.67993 7.42327C7.75279 7.7147 7.82993 8.0147 8.07851 8.30184C8.22422 8.47327 8.60136 8.86327 8.95708 8.77327C9.16279 8.72184 9.27851 8.53327 9.28279 8.53327C9.38565 8.36613 9.35136 8.20756 9.24422 7.77041C9.19708 7.57756 9.14136 7.34184 9.08565 7.05041C9.02136 6.70756 8.99136 6.44184 8.95708 6.15898C8.89708 5.6147 8.89279 5.3447 8.88851 5.1647C8.88851 4.97613 8.88422 4.90327 8.82422 4.7447C8.71708 4.45756 8.57565 4.3247 8.44279 4.20041C8.28422 4.0547 8.12565 3.9047 8.06136 3.56184C8.02708 3.38613 8.03565 3.23184 8.03993 3.09898C8.04851 2.90184 8.05708 2.74327 7.94565 2.52898C7.82136 2.2847 7.75708 2.2547 7.73565 2.2547H7.73993Z" fill="#030000"/>
<path d="M3.89152 3.71512C3.41581 3.98941 3.48438 4.71798 3.64295 5.24512C3.82295 5.84084 4.37152 6.22655 4.68866 6.66798C5.10009 7.24227 5.14724 7.15227 5.50724 7.6837C5.93152 8.30941 5.91009 8.49798 6.30009 8.94798C6.52724 9.20512 6.76295 9.47512 7.17009 9.64227C7.31152 9.70227 8.00581 9.98941 8.41295 9.64227C8.63152 9.45369 8.66152 9.16227 8.66152 9.14512C8.69581 8.73369 8.34866 8.52798 7.71866 7.70512C7.48724 7.40084 7.32438 7.15655 7.14866 6.88655C6.52295 5.93084 6.61724 5.86227 6.33009 5.59655C5.77295 5.08227 5.42581 5.35655 5.04009 4.85084C4.76581 4.49512 4.79581 4.1737 4.39295 3.88227C4.27724 3.79655 4.04581 3.62084 3.89581 3.70655L3.89152 3.71512Z" fill="white"/>
<path d="M7.89434 9.95967C7.66291 9.95967 7.40148 9.89967 7.11434 9.77967C6.66862 9.59538 6.40291 9.2911 6.18862 9.04681C5.95719 8.7811 5.85862 8.59681 5.74719 8.38253C5.66148 8.21967 5.56291 8.03538 5.38291 7.76967C5.20719 7.50824 5.11291 7.40539 5.00148 7.28967C4.89434 7.17396 4.77434 7.04538 4.56434 6.75396C4.46577 6.61253 4.33719 6.47538 4.20434 6.33396C3.93434 6.04681 3.63005 5.7211 3.50148 5.28824C3.25719 4.47824 3.37719 3.84396 3.81862 3.58681C4.04577 3.45396 4.32005 3.65538 4.46577 3.76253C4.74862 3.96824 4.84719 4.18253 4.94148 4.39253C5.00148 4.5211 5.05291 4.6411 5.15148 4.76538C5.31862 4.98396 5.46862 5.02681 5.67434 5.08681C5.87577 5.14681 6.12862 5.21967 6.42862 5.48967C6.60005 5.64824 6.65577 5.7511 6.75434 5.93967C6.84005 6.10681 6.97291 6.35538 7.26862 6.80538C7.44862 7.07967 7.60291 7.31539 7.83434 7.61539C8.02719 7.86396 8.19005 8.05681 8.32719 8.21539C8.64434 8.58396 8.83291 8.80681 8.80719 9.15396C8.79862 9.24396 8.75148 9.53967 8.51148 9.74967C8.35291 9.88681 8.14719 9.9511 7.89862 9.9511L7.89434 9.95967ZM3.98577 3.83538C3.98577 3.83538 3.96862 3.83538 3.96434 3.83967C3.59148 4.05396 3.62577 4.68396 3.78005 5.20253C3.89148 5.56681 4.15719 5.85396 4.41434 6.13253C4.55577 6.28253 4.68862 6.42824 4.80005 6.58253C4.99719 6.85681 5.10434 6.97253 5.21148 7.08396C5.32719 7.20396 5.43434 7.31967 5.62291 7.60253C5.81148 7.8811 5.91434 8.07396 6.00434 8.24538C6.11148 8.4511 6.19719 8.61396 6.40719 8.85396C6.62148 9.09824 6.84005 9.3511 7.22148 9.50967C7.71005 9.7111 8.09148 9.71967 8.31005 9.53539C8.47719 9.38967 8.50291 9.16253 8.50719 9.13681C8.52434 8.92681 8.41291 8.78538 8.09577 8.41681C7.95434 8.25396 7.78719 8.05681 7.59005 7.80396C7.35434 7.49538 7.18719 7.24253 7.01577 6.9811C6.71148 6.51824 6.57434 6.2611 6.48434 6.08967C6.39005 5.90967 6.35148 5.8411 6.21862 5.71681C5.97434 5.48967 5.77291 5.43396 5.58434 5.37824C5.36577 5.31396 5.13862 5.24967 4.91148 4.95396C4.79577 4.79967 4.72719 4.65396 4.66719 4.5211C4.58148 4.33253 4.50862 4.16967 4.29434 4.01538C4.10148 3.87396 4.01577 3.84396 3.97719 3.84396L3.98577 3.83538Z" fill="#030000"/>
</g>
<defs>
<clipPath id="clip0_630_33">
<rect width="15" height="15" fill="white"/>
</clipPath>
</defs>
</svg>
