<?xml version="1.0" encoding="UTF-8"?><svg id="a" xmlns="http://www.w3.org/2000/svg" viewBox="0 0 140 140"><rect x="40.71" y="99.26" width="99.29" height="26.22" style="fill:#fff;"/><path d="M40.47,14.52C20.3,14.52,0,28.38,0,53.41c0,38.8,40.47,72.07,40.47,72.07,0,0,40.67-33.41,40.67-73.26,0-24.25-20.5-37.7-40.67-37.7Zm15.35,60.51h-9.36l-7.2-11.05c-.97-1.5-2.19-3.44-3.37-5.52,.07,2.19,.1,4.56,.1,7.2v9.38h-8.96v-29.65h10.21l6.98,10.55c.91,1.37,1.86,2.93,2.77,4.56-.09-1.81-.13-3.77-.13-5.98v-9.13h8.96v29.65Z" style="fill:#fff;"/></svg>