<svg width="78" height="48" viewBox="0 0 78 48" fill="none" xmlns="http://www.w3.org/2000/svg">
<path d="M22.4832 23.0372C22.3048 22.9417 21.1806 22.3629 19.8864 22.7584C18.4912 23.1841 18.0267 24.3994 17.9224 24.6706C17.5084 25.751 17.8651 26.6904 17.9846 26.9707C18.4087 26.9147 18.9607 26.7768 19.501 26.4434C19.9116 26.1904 20.504 25.8237 20.5612 25.2843C20.6185 24.7388 20.0816 24.4933 20.228 24.1312C20.3946 23.722 21.2344 23.6508 21.5575 23.6236C22.7609 23.5205 23.7622 23.9281 24.3243 24.2069C24.9268 24.5054 25.526 24.9055 26.7713 26.1449C28.8818 28.2481 30.1827 30.1103 30.7701 30.9952C31.1908 31.6286 31.5173 32.1665 31.7361 32.5423C30.4553 28.9239 28.764 26.9677 27.771 26.0101C26.2395 24.5312 25.4738 23.7918 24.8561 23.4917C24.4017 23.2705 23.1681 22.7417 22.293 21.531C22.2711 21.5007 22.256 21.478 22.2509 21.4719C21.4734 20.3597 21.4465 19.1839 21.4515 18.4293C21.4583 17.3065 21.5458 15.92 21.8352 13.982C21.9716 13.0683 22.0742 12.5547 22.1685 11.541C22.2863 10.2742 22.3418 9.62874 22.1685 8.98021C21.8319 7.72559 20.8271 6.40581 20.1455 6.524C19.6642 6.60733 19.3933 7.40435 19.3259 7.94681C19.1105 9.67116 20.775 10.203 21.1368 12.3244C21.1738 12.5395 21.0712 13.4487 20.8659 15.2685C20.6454 17.2171 20.5091 17.8232 20.6336 18.8187C20.7632 19.8612 21.0981 20.6809 21.3455 21.1886C20.6959 20.79 20.0328 20.1218 19.1509 19.4612C14.7904 16.1913 17.2694 15.7928 15.4265 14.3245C14.7416 14.0927 14.8611 15.3821 14.4891 15.7912C14.134 16.1837 12.6345 16.3276 12.9442 16.6398C15.0193 18.7339 14.1441 15.62 17.5891 19.2233C18.5316 20.2097 17.8534 19.296 19.6457 20.7082C20.7346 21.5674 20.7211 21.6249 21.2647 22.0416C21.7982 22.4508 22.2156 22.8038 22.4815 23.0372H22.4832Z" fill="#85893D"/>
<path d="M31.5338 32.6365C31.2326 32.1213 30.9094 31.6046 30.5729 31.1001C29.4503 29.4121 28.1141 27.7908 26.6011 26.2831C25.4095 25.0966 24.8239 24.689 24.213 24.3875C23.3193 23.9435 22.4341 23.7556 21.5775 23.8284C20.9009 23.886 20.5172 24.0117 20.4398 24.2026C20.4061 24.2845 20.4465 24.3617 20.5525 24.5315C20.672 24.7239 20.8218 24.9633 20.7865 25.3042C20.7191 25.9391 20.0628 26.3452 19.6286 26.6134C19.154 26.9074 18.6121 27.0953 18.0163 27.174L17.8362 27.1983L17.7706 27.0452C17.5737 26.5846 17.3027 25.6558 17.705 24.6042C18.1021 23.5693 18.8292 22.8632 19.8103 22.5647C20.4229 22.3783 20.9985 22.3919 21.4714 22.4768C21.3536 22.3828 21.2341 22.2904 21.1146 22.1995C20.8672 22.0101 20.7343 21.8934 20.5643 21.7464C20.3556 21.5646 20.0948 21.3388 19.4923 20.8646C18.5953 20.1569 18.3378 20.0509 18.1863 19.9872C17.9843 19.9039 17.885 19.8509 17.4138 19.3584C15.5508 17.4083 15.0341 17.5143 14.6201 17.5992C14.1169 17.7022 13.6911 17.7038 12.7722 16.7779C12.6561 16.6597 12.6662 16.5446 12.683 16.4855C12.747 16.2597 13.0634 16.1582 13.5026 16.0173C13.8089 15.9188 14.191 15.7961 14.3104 15.6627C14.4165 15.546 14.4838 15.2778 14.5444 15.0415C14.642 14.6551 14.7362 14.2884 15.0308 14.1459C15.1267 14.099 15.2882 14.0596 15.5053 14.1323L15.576 14.1702C16.3653 14.799 16.431 15.2718 16.5 15.7733C16.5976 16.484 16.7188 17.3704 19.2954 19.3023C19.674 19.5872 20.0056 19.866 20.327 20.1342C20.502 20.2812 20.667 20.4206 20.8269 20.5494C20.6199 19.9903 20.4785 19.419 20.4061 18.8402C20.3035 18.025 20.3708 17.481 20.5155 16.287C20.5525 15.9855 20.5929 15.6445 20.6384 15.246C20.8302 13.5505 20.943 12.5428 20.911 12.3534C20.7478 11.3973 20.3152 10.7897 19.8979 10.2018C19.4233 9.53505 18.9756 8.90622 19.0985 7.92283C19.117 7.77282 19.3021 6.4591 20.1015 6.32121C20.9564 6.17272 22.0319 7.6016 22.3886 8.93047C22.5754 9.62294 22.5115 10.3093 22.3954 11.5564C22.3247 12.3186 22.2473 12.808 22.1581 13.3762C22.1278 13.5717 22.0941 13.7777 22.0605 14.0096C21.8097 15.696 21.6885 17.1007 21.6784 18.4311C21.6734 19.0675 21.665 20.2524 22.4425 21.3631L22.4829 21.4207C23.2655 22.5041 24.3409 23.0162 24.8575 23.2617L24.9619 23.3117C25.6115 23.6269 26.3873 24.3754 27.9323 25.8679C29.6254 27.5029 30.9768 29.7257 31.9512 32.4804L31.5321 32.638L31.5338 32.6365ZM23.5179 23.6541C23.8225 23.7511 24.1288 23.8754 24.4334 24.0269C25.0864 24.3496 25.7057 24.7784 26.9394 26.0073C28.2807 27.3438 29.484 28.7681 30.5257 30.2485C29.7145 28.6181 28.7367 27.2453 27.6024 26.1497C26.0878 24.6875 25.3304 23.9557 24.7465 23.6723L24.6455 23.6238C24.1372 23.3814 22.9491 22.8147 22.1009 21.6434L22.0554 21.5782C21.2089 20.3676 21.219 19.0569 21.2223 18.428C21.2308 17.0795 21.3536 15.6582 21.6077 13.9535C21.6431 13.7202 21.6751 13.5141 21.7054 13.3171C21.7929 12.7565 21.8703 12.2716 21.9393 11.5215C22.0588 10.226 22.1059 9.629 21.9443 9.02593C21.6061 7.76524 20.6501 6.64245 20.1873 6.72275C19.8827 6.77579 19.6202 7.40916 19.5512 7.96677C19.4468 8.80622 19.8154 9.32443 20.2816 9.97902C20.704 10.573 21.1836 11.2473 21.362 12.2898C21.4024 12.5292 21.3132 13.3292 21.0961 15.2597C21.0473 15.6854 21.0069 16.0294 20.9699 16.3309C20.8285 17.4931 20.7646 18.0235 20.8605 18.7932C20.9581 19.5811 21.1921 20.3585 21.5539 21.1025L21.872 21.7586L21.2156 21.3555C20.8285 21.1176 20.4516 20.8009 20.0157 20.4342C19.6993 20.1691 19.3745 19.8948 19.0042 19.6175C16.2896 17.581 16.155 16.6067 16.0473 15.8233C15.9833 15.3551 15.9362 15.0157 15.3101 14.5051C15.2866 14.5005 15.263 14.499 15.2479 14.5051C15.1351 14.5596 15.0493 14.9021 14.9904 15.1293C14.9163 15.4233 14.8389 15.7279 14.6655 15.9188C14.4653 16.14 14.0546 16.2734 13.6575 16.4006C13.5077 16.4491 13.299 16.5158 13.1845 16.5703C13.9385 17.3128 14.1977 17.2613 14.5208 17.1961C15.199 17.0583 15.8705 17.1083 17.7605 19.0887C18.1846 19.5327 18.2452 19.5569 18.3765 19.6114C18.5633 19.6887 18.846 19.8054 19.7935 20.5524C20.4044 21.0327 20.6687 21.2631 20.8807 21.4479C21.044 21.5904 21.1735 21.7025 21.4092 21.8843C21.8299 22.2071 22.2439 22.545 22.6377 22.8889L23.5145 23.6526L23.5179 23.6541ZM20.8151 22.8268C20.5458 22.8268 20.258 22.8617 19.9601 22.9526C19.117 23.2102 18.4875 23.8269 18.1392 24.7375C17.8261 25.5573 17.9759 26.2967 18.1358 26.7392C18.5885 26.6573 19.0042 26.5013 19.3728 26.274C19.7582 26.0361 20.2866 25.7088 20.3337 25.2648C20.3573 25.0527 20.2597 24.8966 20.157 24.7315C20.0392 24.5421 19.9046 24.3269 20.014 24.0602C20.2294 23.5284 21.1449 23.4511 21.5371 23.4177C21.983 23.3799 22.4341 23.4056 22.8902 23.4935L22.3668 23.2132C22.1614 23.1041 21.5674 22.8268 20.8151 22.8268Z" fill="#050001"/>
<path d="M59.2286 44.9773C59.0906 44.9773 58.9425 44.9682 58.7843 44.95L58.5403 44.9197L58.5908 44.703C58.9122 43.3347 58.8988 41.9665 58.5487 40.6361C58.3568 39.9072 57.1216 37.9298 55.0078 36.4479C53.9004 35.6721 52.7829 35.0388 49.3749 34.5554C45.4654 33.9993 41.9918 33.7887 41.9564 33.7872C40.8659 33.722 40.0766 33.6917 39.4421 33.669C38.0166 33.6159 37.4831 33.5962 36.5912 33.2386C33.7116 32.0825 32.4141 29.749 32.1818 29.2945C30.8338 26.6322 30.3524 24.7639 30.3474 24.7442C30.1219 23.5759 29.3258 22.0667 28.5719 21.3682C28.0872 20.9197 26.3588 20.1211 25.6351 20.0136C23.4069 19.6802 22.0656 20.2575 21.4934 20.5045C21.2662 20.603 21.1635 20.6469 21.0373 20.6015L20.943 20.5666L20.8976 20.4712C20.7428 20.0787 22.2928 19.4893 22.3096 19.4847L22.5856 19.3923C22.8616 19.2999 23.1443 19.2029 23.656 19.0544C24.07 18.9332 24.2265 18.8317 24.4217 18.6498C24.7785 18.3165 24.8828 18.1134 24.9502 17.8543C25.2093 16.8694 26.0895 16.2345 26.798 15.7254C27.7422 15.0451 28.7705 14.6481 29.8543 14.5466C31.5473 14.389 32.8096 15.0239 34.1492 15.6951C35.3626 16.3042 36.4582 17.0967 37.4108 18.0528C37.6245 17.8331 37.8113 17.5952 37.9678 17.3437C39.0819 15.5406 38.3448 13.4162 37.4899 10.9569C36.751 8.83104 36.3791 7.76279 35.5124 6.97032C35.1186 6.6112 34.8005 6.19148 34.4925 5.78691C34.1492 5.33536 33.8261 4.90958 33.407 4.55653C33.1781 4.36409 33.0586 4.1565 33.0469 3.93679C33.03 3.6201 33.2488 3.28523 33.5787 3.12159C33.9758 2.92461 34.3848 3.05643 35.0041 3.25644C35.6756 3.47312 36.0459 3.59283 36.3185 3.92012C36.5743 4.22772 36.6518 4.57319 36.6585 4.86109C36.7376 4.82776 36.82 4.80048 36.9025 4.77775C37.4411 4.63077 38.2371 4.66411 38.7117 5.08383C39.1274 5.45204 39.1223 5.97631 39.1156 6.53241C39.1105 7.04456 39.092 7.56732 39.0634 8.09311C39.161 8.00371 39.2704 7.92492 39.3916 7.85825C40.2634 7.37489 41.3859 7.68703 41.8874 8.281C42.2459 8.70376 42.2139 9.18712 42.1735 9.79777C42.1382 10.3205 42.0221 10.8387 41.8235 11.3448C42.0641 11.2357 42.3149 11.1448 42.5724 11.0721C43.2119 10.8948 43.7639 10.7403 44.3311 10.9584C45.0985 11.2539 45.5882 12.1025 45.4452 12.8919C45.3257 13.5556 44.8259 13.9541 44.5145 14.1435C44.7064 14.3829 44.9184 14.6117 45.1473 14.8254C45.3947 15.0557 45.5411 15.1587 45.6724 15.2496C45.7953 15.336 45.9131 15.4163 46.0679 15.5739C46.8084 16.3194 46.8454 16.727 46.8707 17.0255L46.874 17.0664L46.4196 17.1013L46.4163 17.0573C46.3944 16.8043 46.3658 16.4891 45.7279 15.8466C45.6 15.7178 45.5092 15.6542 45.393 15.5739C45.2567 15.4799 45.0884 15.3618 44.8175 15.1087C44.5145 14.8254 44.2385 14.5178 43.9979 14.192L43.8531 13.998L44.0854 13.8935C44.1645 13.8571 44.8696 13.5222 44.9942 12.8237C45.1019 12.2237 44.7232 11.5555 44.151 11.3342C43.737 11.1751 43.3045 11.2948 42.707 11.4615C42.2728 11.5827 41.8605 11.7646 41.4835 12.0009L40.78 12.4419L41.1452 11.7433C41.4802 11.1054 41.672 10.4402 41.7175 9.76746C41.7595 9.14924 41.7679 8.81286 41.5256 8.52344C41.152 8.08099 40.2836 7.84007 39.6323 8.2007C39.3091 8.38101 39.0836 8.68103 38.9978 9.02954C38.986 9.16591 38.9742 9.3038 38.9608 9.44017L38.5047 9.43108C38.4963 9.27349 38.5114 9.11894 38.5434 8.97044C38.6124 8.14312 38.6511 7.32034 38.6595 6.51877C38.6662 5.90207 38.641 5.58689 38.3919 5.36567C38.0654 5.07626 37.4613 5.04292 37.0355 5.15959C36.8571 5.20808 36.6888 5.28839 36.5373 5.39597L36.0661 5.72933L36.1721 5.19748C36.2192 4.96261 36.2529 4.5141 35.955 4.15499C35.7648 3.92618 35.4787 3.83375 34.8527 3.63071C34.2737 3.44433 34.0095 3.36554 33.8008 3.46858C33.6275 3.55495 33.4962 3.74587 33.5046 3.90345C33.513 4.06862 33.6679 4.19741 33.7184 4.24135C34.1761 4.62774 34.5295 5.09141 34.8712 5.54144C35.1674 5.93237 35.4737 6.33543 35.8389 6.66878C36.7847 7.53247 37.1667 8.63103 37.9274 10.8206C38.8143 13.3722 39.5801 15.5739 38.37 17.5316C38.1563 17.8786 37.8887 18.2013 37.574 18.4907L37.4007 18.6514L37.2374 18.4816C36.2815 17.4846 35.1691 16.6634 33.9304 16.0421C32.6009 15.3754 31.4514 14.7996 29.9048 14.9435C28.9101 15.036 27.961 15.4027 27.0858 16.0345C26.3992 16.53 25.62 17.0907 25.3978 17.9377C25.3154 18.2513 25.179 18.5256 24.7549 18.9226C24.5159 19.1468 24.3022 19.2878 23.8007 19.4332C23.6627 19.4726 23.5415 19.509 23.4338 19.5423C24.07 19.4696 24.8307 19.4635 25.7159 19.5969C26.5355 19.7196 28.3548 20.5591 28.9051 21.0697C29.7264 21.8303 30.5594 23.4047 30.8018 24.6502C30.8035 24.6578 31.2764 26.4897 32.6042 29.1096C33.2084 30.3036 34.6659 31.9992 36.783 32.8492C37.5942 33.175 38.0284 33.1917 39.4657 33.2432C40.1035 33.2659 40.8962 33.2962 41.9918 33.3614V33.3871C42.9191 33.3583 47.4311 33.8478 49.4506 34.1342C52.9663 34.6342 54.1326 35.2948 55.2922 36.1085C57.6248 37.7435 58.8129 39.8269 58.9964 40.5255C59.3431 41.8422 59.375 43.1953 59.0906 44.5469C59.7402 44.5787 60.1256 44.3878 60.304 44.2621C61.1825 43.6408 60.8729 42.1831 60.7719 41.7028C60.6524 41.1391 60.4117 40.6027 60.0533 40.1088L58.924 38.5466L60.4033 39.8512C61.1859 40.5406 62.3118 40.7467 62.9648 40.3209C63.3906 40.0451 63.5976 39.4921 63.5488 38.7647C63.4899 37.895 62.884 37.3222 62.6265 37.1162L62.1873 36.7646L65.464 36.7177C64.8766 36.2116 64.2438 35.7464 63.5791 35.3282C62.1654 34.4402 61.0799 34.0751 59.9287 33.6887C58.9661 33.3644 57.9698 33.0295 56.6873 32.375C56.5157 32.2871 56.4888 32.2704 55.8358 31.8249C55.309 31.4673 54.3666 30.8279 52.5978 29.6399C48.8717 27.1398 48.7943 27.0792 48.4712 26.8261L48.7707 26.5155C49.0838 26.761 49.1578 26.8185 52.8704 29.3096C54.6409 30.4976 55.5833 31.1385 56.1118 31.4961C56.7614 31.937 56.7681 31.9416 56.9145 32.0158C58.1667 32.6553 59.1445 32.9841 60.0903 33.3023C61.2684 33.6978 62.3808 34.072 63.8416 34.9903C64.678 35.5161 65.4623 36.1146 66.1759 36.7707L66.5461 37.1116L63.3031 37.1571C63.6127 37.501 63.9594 38.0359 64.0065 38.736C64.0654 39.6087 63.7911 40.2876 63.2341 40.6497C62.6114 41.0543 61.7127 41.0406 60.9015 40.6694C61.0445 40.977 61.1522 41.2952 61.2212 41.6225C61.3357 42.1634 61.6824 43.806 60.5868 44.5818C60.373 44.7333 59.9355 44.9576 59.232 44.9576L59.2286 44.9773Z" fill="#050001"/>
<path d="M40.5593 29.1625C39.8289 29.1625 39.1187 28.9503 38.501 28.5458C37.8531 28.123 37.5014 27.5942 37.3213 27.226L37.7387 27.0593C37.8969 27.3821 38.2048 27.8427 38.7703 28.2124C39.3307 28.5791 39.9719 28.7655 40.6333 28.7503C41.6179 28.7291 42.2288 28.3564 42.5688 28.0472C43.417 27.2775 43.3429 26.2471 43.3193 26.0471L43.767 25.9744C43.8394 26.2289 44.1474 27.0957 45.0982 27.573C45.7091 27.8791 46.3133 27.9639 46.8906 27.826C47.9374 27.576 48.3632 26.7063 48.4086 26.6078C48.6526 26.0759 48.5853 25.5774 48.5247 25.3259L48.1881 23.9576L48.9472 25.1819C49.6304 26.2835 50.8304 26.9154 51.8705 26.7199C52.409 26.6184 52.8987 26.3123 53.1815 25.9001C53.5181 25.4092 53.55 24.8016 53.2757 24.097C53.0637 23.5545 52.6833 23.1863 52.3585 22.956C52.3097 22.9242 52.2626 22.8924 52.2155 22.859L52.4847 22.5272C52.5335 22.5575 52.584 22.5924 52.6362 22.6287C54.1071 23.6 55.7328 24.1712 57.3468 24.2849L57.3821 24.2879C58.1597 24.3425 60.2213 24.4864 60.674 23.6212C60.9786 23.0394 60.642 22.2787 60.4317 22.0817C59.7955 21.4893 59.1812 21.1074 58.6595 20.8392C58.37 20.7134 58.0822 20.5801 57.7978 20.4407C57.5824 20.3452 57.4225 20.271 57.3098 20.1877L57.5706 19.8513C57.7154 19.9286 57.8618 20.0028 58.0082 20.0755C58.0368 20.0892 58.0671 20.1013 58.0991 20.1149C58.3094 20.2074 58.5686 20.321 58.8598 20.471C60.0109 20.9695 61.1991 21.3438 62.4091 21.5877C63.811 21.8711 64.979 21.9256 65.8777 21.7514C66.423 21.6453 66.9497 21.4786 67.4496 21.2514C63.3937 20.3755 63.4071 20.3225 63.466 20.077C63.493 19.9629 63.8957 19.869 64.6744 19.7952C65.3997 19.7255 66.3944 19.6316 66.8 19.5346C72.0255 18.2784 74.8209 17.2057 75.8644 16.0556C76.3507 15.5207 76.4248 15.154 76.1286 14.751C76.0293 14.6161 75.7045 14.4964 75.1946 14.5358C74.1915 14.6131 73.4763 14.8858 73.0033 15.0661C72.9007 15.1055 72.8115 15.1389 72.7341 15.1661C72.591 15.2146 72.4396 15.2601 72.2578 15.307C72.0676 15.3571 71.8438 15.4177 71.5897 15.4858C69.9319 15.9359 67.1568 16.6905 64.3412 16.9178C62.3435 17.0784 61.4532 16.9693 60.2196 16.8177C58.9776 16.6662 57.4326 16.4768 54.0802 16.4556C51.9832 16.442 49.4369 16.5314 46.4227 17.2905C43.9185 17.9208 42.9861 18.536 42.355 19.2679C41.3267 20.4604 41.182 21.8832 41.2409 22.8651L40.7848 22.8878C40.7209 21.8347 40.8791 20.3089 41.9932 19.0164C42.6798 18.2209 43.6745 17.5557 46.2982 16.895C49.3679 16.1223 51.958 16.0329 54.0819 16.045C57.4646 16.0662 59.0264 16.2571 60.2802 16.4117C61.4835 16.5586 62.3536 16.6662 64.2991 16.5086C67.0692 16.2844 69.8158 15.5389 71.4567 15.0934C71.7125 15.0237 71.9397 14.9616 72.1299 14.9131C72.2797 14.8737 72.4244 14.8328 72.5691 14.7828C72.6432 14.757 72.7273 14.7252 72.8233 14.6888C73.2928 14.51 74.0771 14.21 75.1525 14.1282C75.7836 14.0797 76.2885 14.2282 76.5056 14.5252C77.034 15.2449 76.6268 15.8601 76.2127 16.3162C75.0902 17.5526 72.3083 18.6345 66.9127 19.9316C66.4735 20.0376 65.499 20.1301 64.7181 20.2043L64.6912 20.2074C65.3139 20.3589 66.3641 20.5983 68.1211 20.9756L68.6563 21.0907L68.1867 21.3499C67.4967 21.7317 66.7512 22.0029 65.9686 22.1545C64.9908 22.3439 63.7925 22.2908 62.3048 21.9908C61.6703 21.862 61.0409 21.6999 60.4182 21.5029C60.5293 21.5953 60.6403 21.6938 60.7531 21.7984C61.0846 22.1075 61.4768 23.0409 61.0796 23.7985C60.4922 24.9198 58.2825 24.7652 57.3401 24.6985L57.3064 24.6955C56.0358 24.6061 54.7618 24.25 53.5568 23.65C53.6106 23.747 53.6594 23.8515 53.7015 23.9606C54.0246 24.7895 53.9792 25.5153 53.5652 26.1168C53.2185 26.6229 52.6177 26.9987 51.9596 27.1229C50.9516 27.3124 49.8307 26.8684 49.0279 26.0138C49.0077 26.2471 48.9488 26.5032 48.8277 26.7653C48.7402 26.9578 48.2369 27.9291 47.005 28.223C46.3066 28.3897 45.5897 28.2912 44.8727 27.9321C44.319 27.6533 43.9521 27.2714 43.7132 26.9138C43.6139 27.3563 43.3867 27.8836 42.8885 28.3351C42.4897 28.6973 41.7761 29.1352 40.6401 29.1594C40.6115 29.1594 40.5845 29.1594 40.5559 29.1594L40.5593 29.1625Z" fill="#050001"/>
<path d="M27.6391 18.0576C27.5903 18.0576 27.5381 18.053 27.4826 18.0424C27.3244 18.0106 27.1763 17.9272 27.0635 17.8091C27.0097 17.7515 27.0164 17.6651 27.0804 17.6166C27.1443 17.5681 27.2403 17.5742 27.2941 17.6318C27.3345 17.6742 27.422 17.75 27.5482 17.7757C27.6761 17.803 27.7805 17.7636 27.8293 17.7454C27.9909 17.6848 28.0885 17.5651 28.1322 17.4984C28.176 17.4333 28.2702 17.4121 28.3409 17.4515C28.4133 17.4909 28.4368 17.5742 28.3931 17.6394C28.2837 17.803 28.1255 17.9303 27.9471 17.9985C27.8983 18.0166 27.7855 18.0591 27.6374 18.0591L27.6391 18.0576Z" fill="#050001"/>
<path d="M14.4934 6.98401C14.4311 7.29464 15.0925 7.3901 15.451 8.06893C15.7522 8.64018 15.4308 8.85383 15.663 9.5372C15.9373 10.3403 16.4742 10.3236 16.762 11.0373C17.1642 12.0389 16.4826 13.0147 16.5853 13.048C16.6896 13.0829 17.3965 12.0737 17.6842 10.6858C17.8391 9.93874 18.0663 8.74927 17.3645 7.65375C17.1827 7.36888 16.7334 6.66884 15.9104 6.53701C15.2944 6.43701 14.5556 6.67187 14.4934 6.98401Z" fill="white"/>
<path d="M14.517 6.9883C14.4934 7.14589 14.6735 7.25044 14.8082 7.34741C15.2676 7.6444 15.6867 8.04291 15.7321 8.59749C15.7102 9.27632 15.8869 9.81575 16.4086 10.2597C16.5349 10.3809 16.6611 10.5279 16.7536 10.687C17.1172 11.3128 17.001 12.0477 16.7654 12.6856C16.7452 12.7417 16.656 12.969 16.6476 13.0235C16.6426 13.0266 16.6611 13.0311 16.6257 12.9917C16.5753 12.9629 16.5534 13.0069 16.6055 12.9523C17.1996 12.1614 17.4033 11.1567 17.5531 10.2218C17.6961 9.27026 17.5884 8.33536 17.0196 7.52621C16.6779 6.98982 16.1377 6.53676 15.4022 6.58373C15.0825 6.59888 14.6298 6.68525 14.5153 6.9883H14.517ZM14.4716 6.98072C14.5927 6.63525 15.0454 6.54585 15.3888 6.47009C16.1579 6.30644 16.9775 6.72919 17.3881 7.30953C18.0899 8.14292 18.1976 9.29754 17.9788 10.2794C17.7735 11.281 17.4134 12.322 16.6527 13.0993C16.5635 13.1493 16.4861 13.0781 16.5012 13.0114C16.518 12.9159 16.6022 12.7387 16.6342 12.6477C16.9421 11.9174 16.8311 10.981 16.1377 10.5022C15.8566 10.2855 15.5789 9.96576 15.4847 9.62786C15.3551 9.30966 15.3905 8.91418 15.4443 8.59901C15.4948 8.14443 15.1633 7.67925 14.7678 7.39136C14.6382 7.28226 14.4345 7.16862 14.4699 6.98072H14.4716Z" fill="#050001"/>
<path d="M8.64153 15.8101C8.81993 15.6783 9.27601 16.2587 10.2723 16.6072C11.5884 17.0693 12.4618 16.6405 12.8237 17.1496C13.0324 17.4436 12.9398 17.8618 12.753 18.1073C12.3222 18.6709 11.203 18.5679 10.5551 18.33C9.80109 18.0542 9.42747 17.5012 9.10098 17.0208C8.862 16.6693 8.45136 15.948 8.63985 15.8086L8.64153 15.8101Z" fill="white"/>
<path d="M8.62824 15.7946C8.69388 15.7491 8.77466 15.7779 8.82515 15.8006C9.1853 15.9961 9.54714 16.2082 9.94432 16.331C10.6175 16.5537 11.2806 16.6734 11.9908 16.7492C12.2298 16.7825 12.5024 16.8052 12.7262 16.9583C13.1487 17.2901 13.0864 17.8841 12.7734 18.2659C12.0531 18.9872 10.6175 18.7493 9.83829 18.1993C9.13145 17.6492 8.84366 16.8931 8.59963 16.1294C8.57944 16.0188 8.52727 15.8885 8.62993 15.7931L8.62824 15.7946ZM8.65685 15.8264C8.59122 15.8946 8.62993 16.0188 8.66359 16.1158C8.78476 16.4204 9.00523 16.6871 9.22233 16.9386C9.7878 17.625 10.3718 18.2038 11.3479 18.3114C11.7855 18.3644 12.2668 18.3629 12.5882 18.1144C12.8929 17.872 13.0073 17.3038 12.6387 17.0644C12.2348 16.8674 11.6996 17.0401 11.2402 16.9931C10.4694 16.9719 9.77602 16.6037 9.22906 16.1431C9.07759 16.0461 8.84366 15.7779 8.65854 15.8264H8.65685Z" fill="#050001"/>
<path d="M7.96312 8.23033C7.79482 8.37428 7.29498 7.82425 6.27343 7.53938C4.9237 7.1636 4.08727 7.64696 3.68504 7.16208C3.45279 6.88328 3.51338 6.45901 3.67999 6.20293C4.06371 5.6135 5.1896 5.64381 5.85437 5.83927C6.62853 6.06656 7.04422 6.59387 7.40774 7.05147C7.67365 7.38634 8.13983 8.08032 7.96312 8.23185V8.23033Z" fill="white"/>
<path d="M7.98012 8.24561C7.91785 8.29562 7.83538 8.27137 7.78321 8.25167C7.40791 8.08045 7.03093 7.89256 6.62534 7.79407C5.93532 7.61527 5.26551 7.53799 4.55025 7.50769C4.30959 7.4895 4.03527 7.48344 3.80133 7.34707C3.35367 7.04251 3.36881 6.44701 3.65155 6.04547C4.31295 5.28027 5.76535 5.42574 6.58495 5.92274C7.33386 6.4258 7.68055 7.16221 7.98517 7.90771C8.01378 8.01681 8.07604 8.14409 7.9818 8.24561H7.98012ZM7.94814 8.21531C8.00704 8.14258 7.95992 8.02136 7.91953 7.92741C7.7748 7.63194 7.53245 7.37889 7.29684 7.14251C6.67919 6.49399 6.05145 5.95304 5.0686 5.9091C4.62767 5.88486 4.14802 5.91668 3.84846 6.18488C3.56404 6.4455 3.49504 7.02129 3.88212 7.23494C4.30117 7.40617 4.82121 7.20009 5.28234 7.21676C6.05145 7.18797 6.77344 7.51072 7.35574 7.9365C7.51394 8.02287 7.76975 8.27592 7.94982 8.21682L7.94814 8.21531Z" fill="#050001"/>
<path d="M8.33892 8.62658C8.57622 8.44021 9.30662 7.91441 10.2878 7.95684C11.3935 8.00381 12.0936 8.74022 12.5918 9.2645C12.8442 9.53118 13.5998 10.3494 13.7614 11.6268C13.8169 12.0707 13.9482 13.2738 13.0529 14.4027C12.1155 15.5831 10.7136 15.8498 10.3938 15.9028C12.0852 16.7438 13.8641 16.9226 14.7897 16.1907C15.5302 15.6043 15.473 14.5557 15.3569 12.4571C15.2862 11.1586 15.2205 10.1979 14.5776 9.1054C14.1014 8.29777 13.5325 7.79774 12.8408 7.19013C12.0229 6.4719 11.5954 6.10672 10.892 6.00975C10.7338 5.98854 9.7139 5.86277 8.9431 6.52039C8.33556 7.0386 8.11004 7.85077 8.34061 8.62658H8.33892Z" fill="white"/>
<path d="M8.34609 8.60647C9.18084 7.78218 10.7022 7.59277 11.712 8.28827C12.6949 8.95195 13.4959 9.87776 13.8275 10.9551C14.1506 12.0294 14.053 13.2416 13.3815 14.1932C12.7302 15.1539 11.5942 15.7645 10.4094 15.966L10.4313 15.8463C11.2441 16.2509 12.1529 16.5373 13.0769 16.56C14.8507 16.5812 15.3253 15.6205 15.2361 14.175C15.1637 12.937 15.1671 11.6188 14.876 10.4263C14.5747 9.20348 13.708 8.20644 12.7134 7.35639C12.0789 6.7912 11.4612 6.11389 10.5003 6.14268C9.01254 6.07752 8.06504 7.35639 8.34946 8.60799L8.34609 8.60647ZM8.33263 8.64587C7.7722 7.31245 8.89473 5.82599 10.4935 5.83205C11.5286 5.75326 12.3414 6.48209 13.0213 7.06849C13.3647 7.35791 13.708 7.65944 14.0244 7.99128C15.7292 9.66563 15.5794 12.0673 15.6181 14.1735C15.7848 17.3297 12.6679 17.107 10.3606 15.9584L10.1856 15.8736C11.4108 15.7084 12.5501 15.0296 13.1206 14.0583C13.9301 12.687 13.6895 10.9112 12.7016 9.6626C11.5605 8.18523 10.1199 7.45943 8.33094 8.64738L8.33263 8.64587Z" fill="#050001"/>
<path d="M8.31693 8.98092C8.00054 8.87182 7.27013 8.66574 6.36807 8.82182C6.0685 8.87333 5.14456 9.04607 4.45455 9.77945C3.91937 10.3492 3.80493 10.9583 3.71068 11.4705C3.61307 11.9947 3.51882 12.5054 3.74602 13.066C4.07252 13.8661 4.86855 14.3009 5.58886 14.6934C6.66763 15.2813 7.06145 15.1359 7.50238 15.6829C7.83561 16.095 7.7767 16.3814 8.21091 16.8632C8.5576 17.2481 8.96151 17.4708 9.23919 17.5966C8.15537 17.6042 7.26172 17.4905 6.61546 17.3739C5.21693 17.1208 4.26942 16.9496 3.709 16.2571C3.2647 15.7071 3.59456 15.4844 3.17718 14.5025C2.57468 13.0857 1.69618 13.0978 1.51106 12.0766C1.37305 11.3129 1.74835 10.6704 2.32561 9.68248C2.77159 8.92031 3.06442 8.41876 3.70731 8.15056C4.34011 7.88691 4.94429 8.00055 5.90526 8.18238C6.48251 8.29148 7.33914 8.50816 8.31525 8.9794L8.31693 8.98092Z" fill="white"/>
<path d="M8.33723 8.98842C8.30357 8.99448 8.22952 8.98084 8.19081 8.9672C7.01947 8.66112 5.61252 8.90811 4.75758 9.70058C4.30991 10.1052 4.06756 10.6234 3.96154 11.184C3.85383 11.7613 3.72087 12.3386 3.88244 12.8553C4.044 13.3963 4.47147 13.816 4.96626 14.1493C5.61084 14.6024 6.33956 14.9236 7.08511 15.2267C7.54792 15.4494 7.7768 15.9328 7.93836 16.3404C8.22783 16.9692 8.88419 17.398 9.5641 17.6632C8.57452 17.6799 7.5799 17.6435 6.60041 17.4844C5.72191 17.3314 4.80806 17.2602 4.03559 16.7844C3.64514 16.5313 3.30014 16.1571 3.24291 15.7116C3.19579 15.304 3.15035 14.9721 2.98037 14.6009C2.69595 13.7918 2.02782 13.419 1.49601 12.7053C0.999533 11.9159 1.30583 10.9734 1.73667 10.2491C2.33917 9.22328 3.00393 7.74288 4.56067 7.84592C5.89357 7.98381 7.21469 8.32171 8.33554 8.9869L8.33723 8.98842ZM8.29515 8.97175C8.19754 8.94599 8.0932 8.91569 8.00568 8.87629C7.31062 8.60203 6.57517 8.4005 5.82962 8.28231C4.38733 7.99593 3.41289 8.06563 2.74139 9.38693C2.43846 9.97787 1.83596 10.8507 1.74845 11.4855C1.58015 12.3311 2.13553 12.7674 2.7313 13.372C3.30182 14.019 3.61485 14.8494 3.65356 15.6601C3.7579 16.3965 4.63809 16.7919 5.38364 16.9783C6.63071 17.2965 7.92827 17.5359 9.23424 17.5253L9.20058 17.6571C8.60818 17.3799 8.08142 16.9495 7.80373 16.3919C7.57485 15.8025 7.24162 15.3888 6.54151 15.2297C5.32642 14.7721 3.906 14.1978 3.48863 12.9523C3.29172 12.3386 3.45665 11.7174 3.57782 11.1158C3.699 10.5203 4.00866 9.90817 4.52701 9.48845C5.50986 8.67476 6.99086 8.4702 8.20764 8.91569L8.26149 8.9369C8.26991 8.93993 8.27159 8.95811 8.29179 8.97024L8.29515 8.97175Z" fill="#050001"/>
<path d="M8.63599 9.46367C8.77904 9.38488 9.01129 9.28487 9.29403 9.29245C9.81911 9.30609 10.1843 9.67884 10.6101 10.1137C10.8962 10.4062 11.0897 10.6047 11.2042 10.935C11.2479 11.0607 11.2631 11.1592 11.2681 11.9093C11.2715 12.5199 11.2715 12.8275 11.2261 12.9215C10.9938 13.3927 10.361 13.5715 9.88979 13.7048C9.13583 13.9185 8.86992 13.7685 8.23376 14.0109C7.81639 14.17 7.52187 14.3897 7.3418 14.5458C7.46802 14.6504 7.66492 14.7928 7.93588 14.9095C8.5165 15.158 8.981 15.0898 10.016 15.0428C11.598 14.9716 11.4886 14.7852 11.7478 14.6307C12.2392 14.3382 12.4883 14.0837 12.7121 12.979C12.9141 11.982 13.0167 11.4835 12.7761 10.8774C12.5808 10.3849 12.2712 10.0895 11.672 9.52125C11.1369 9.01213 10.844 8.74242 10.3779 8.69999C9.87465 8.65453 9.42361 8.89546 9.25364 8.98637C8.95912 9.14396 8.75885 9.33033 8.63767 9.46367H8.63599Z" fill="white"/>
<path d="M8.65321 9.45022C8.66163 9.43356 8.64143 9.43053 8.65658 9.42598C9.01 9.19263 9.49974 9.16233 9.88345 9.36082C10.2773 9.56841 10.5516 9.87146 10.8444 10.1412C11.1389 10.4094 11.4335 10.7852 11.4452 11.2261C11.4688 11.761 11.4924 12.2822 11.457 12.8126C11.3207 13.5444 10.3564 13.7444 9.67645 13.8899C9.23888 13.9763 8.81309 13.9157 8.43274 14.0293C8.04398 14.1369 7.68719 14.3369 7.39099 14.593V14.5021C7.83193 14.8763 8.4176 15.0506 9.02178 14.9945C9.81109 14.9066 10.6829 14.9551 11.4048 14.6627C11.5428 14.5369 11.7684 14.4051 11.9114 14.2854C12.4146 13.8187 12.418 13.1277 12.5678 12.4731C12.6687 11.9322 12.7462 11.42 12.556 10.9488C12.386 10.476 11.9754 10.0836 11.5647 9.67145C11.1474 9.27597 10.7838 8.79867 10.2133 8.81079C9.65625 8.80927 9.07395 9.11838 8.65658 9.45174L8.65321 9.45022ZM8.61955 9.4775C8.63638 9.39719 8.71716 9.34567 8.7626 9.28506C9.32471 8.69412 10.4085 8.28348 11.1541 8.85473C11.8542 9.4381 12.63 9.98662 12.9952 10.8064C13.241 11.3594 13.1585 11.9867 13.044 12.5474C12.8791 13.2611 12.7815 14.2399 11.9939 14.7036C11.7768 14.8233 11.6169 14.993 11.3628 15.0536C10.8949 15.1718 10.4186 15.1612 9.94741 15.1718C9.02851 15.2082 7.99181 15.24 7.29507 14.593L7.24121 14.5475L7.29338 14.5021C7.60136 14.2339 7.96825 14.0172 8.37552 13.8793C8.7727 13.7384 9.21364 13.7535 9.61081 13.6459C10.1611 13.4687 11.0632 13.2656 11.0598 12.6459C11.0649 12.1837 11.075 11.6989 11.0615 11.2443C11.0615 11.0594 11.0194 10.923 10.9353 10.7655C10.4792 10.1518 9.74545 9.06535 8.78953 9.42598C8.74746 9.43659 8.65489 9.4881 8.61787 9.4775H8.61955Z" fill="#050001"/>
<path d="M8.59461 10.1025C8.51719 10.0859 7.24656 9.83433 6.40508 10.6101C5.77902 11.1874 5.80595 11.9542 5.81604 12.236C5.82614 12.5163 5.84465 13.0558 6.29569 13.53C6.72316 13.9801 7.28358 14.0998 7.48049 14.1346C7.32902 14.2195 7.06312 14.3392 6.71643 14.3573C6.18293 14.3846 5.79417 14.1513 5.45758 13.9482C5.00654 13.677 4.53868 13.3967 4.42592 12.927C4.32494 12.5103 4.61946 12.43 4.76588 11.6557C4.91566 10.8662 4.66827 10.6389 4.93081 10.2116C5.19335 9.7813 5.68982 9.60856 5.8699 9.54492C7.15231 9.09641 8.48185 10.0222 8.59461 10.1025Z" fill="white"/>
<path d="M8.61468 10.1113C8.59616 10.1234 8.55745 10.1203 8.53389 10.1173C7.9802 10.084 7.38107 10.1673 6.91489 10.437C5.78562 11.031 5.66277 13.0448 6.70284 13.7539C6.97548 13.9479 7.32048 14.0539 7.6638 14.1024L7.51739 14.1858C6.90816 14.5585 6.07341 14.4721 5.48101 14.107C5.067 13.8842 4.63112 13.6751 4.36689 13.2766C4.22721 13.0614 4.15147 12.7963 4.22721 12.5447C4.31135 12.3023 4.40223 12.1493 4.45609 11.9599C4.56716 11.578 4.59409 11.2068 4.5638 10.8037C4.53855 10.5976 4.58736 10.2976 4.73378 10.0931C5.30093 9.2809 6.51266 9.09604 7.41978 9.42182C7.83715 9.55819 8.21413 9.76881 8.54399 10.0309C8.56755 10.0506 8.60963 10.084 8.61468 10.1097V10.1113ZM8.57428 10.0931C8.55577 10.09 8.54736 10.1006 8.54399 10.0976C8.52211 10.087 8.45648 10.0522 8.43292 10.04C7.45344 9.48849 5.82265 9.3006 5.14442 10.3037C4.94751 10.6325 5.11749 11.0568 5.04344 11.4341C5.0081 11.8341 4.80614 12.3129 4.63953 12.6493C4.50321 13.2084 5.18818 13.5994 5.62911 13.9039C6.14073 14.2918 6.85767 14.4312 7.44502 14.0812L7.46858 14.1948C6.86272 14.0903 6.26863 13.7842 5.93372 13.2736C4.96602 11.6371 6.17944 9.57789 8.37906 10.0264C8.41104 10.0355 8.51538 10.0567 8.54736 10.0658L8.57428 10.0734C8.57428 10.0734 8.56755 10.084 8.57597 10.0931H8.57428Z" fill="#050001"/>
<path d="M9.00065 10.4079C8.74484 10.3776 8.18779 10.3473 7.60043 10.6064C7.35641 10.7139 6.82459 10.9488 6.60581 11.47C6.45266 11.8322 6.52671 12.1565 6.60581 12.4989C6.7152 12.9732 6.82291 13.6035 7.19484 13.6944C7.52302 13.7732 7.66775 13.3444 8.41162 13.1626C8.81889 13.0626 8.87107 13.1686 9.36922 13.0626C9.79669 12.9732 10.2191 12.8838 10.4379 12.5974C10.8014 12.1231 10.3975 11.3731 10.1804 10.9715C9.83708 10.3366 9.33725 9.89722 9.25815 9.94268C9.18746 9.98359 9.53079 10.3669 9.51564 10.9715C9.51059 11.1549 9.50049 11.617 9.1841 11.8019C8.8778 11.9807 8.59001 11.7216 8.29886 11.9019C7.98247 12.0974 8.14066 12.5141 7.85624 12.6322C7.64756 12.7186 7.33284 12.5898 7.19316 12.4004C6.96428 12.0898 7.23187 11.6473 7.45065 11.4382C7.78388 11.1185 8.25342 11.1034 8.40994 11.1064C8.5816 11.1094 8.72128 11.1428 8.81553 11.1731" fill="white"/>
<path d="M8.99907 10.4294C8.21649 10.4067 7.36492 10.7158 6.91893 11.2795C6.48978 11.8583 6.86676 12.6841 7.02328 13.2857C7.08555 13.4433 7.18316 13.5599 7.27909 13.5599C7.36997 13.5736 7.56182 13.419 7.7419 13.322C7.92703 13.216 8.13739 13.1387 8.34945 13.0932C8.76345 13.0023 9.17914 13.0872 9.58979 12.9523C10.2461 12.8341 10.6416 12.4629 10.4212 11.8416C10.1856 11.2174 9.80016 10.5582 9.22795 10.1294C9.22795 10.1294 9.21785 10.1249 9.22458 10.1279C9.24815 10.1279 9.22122 10.1461 9.33734 10.1279C9.38951 10.1188 9.47871 10.0309 9.46693 9.9597C9.46356 9.93546 9.46693 9.94909 9.46693 9.94758C9.64196 10.2824 9.77323 10.6582 9.75472 11.0325C9.77323 11.6719 9.38951 12.2523 8.58843 12.0553C8.33598 12.0507 8.35113 12.1644 8.25688 12.4477C8.22659 12.5447 8.15759 12.7099 7.98256 12.7902C7.81932 12.8675 7.65439 12.8523 7.5248 12.819C6.61095 12.5553 6.90547 11.5901 7.55677 11.2264C7.93712 11.0158 8.42855 10.9961 8.82572 11.1567L8.81058 11.1961C8.4134 11.1083 7.98256 11.1901 7.68805 11.3977C7.41036 11.5962 7.21513 11.9947 7.30265 12.2371C7.34472 12.375 7.62409 12.5356 7.77556 12.4629C7.85634 12.378 7.83951 12.1977 7.90683 12.0538C7.95059 11.9401 8.04147 11.8083 8.17442 11.7295C8.30401 11.6462 8.48913 11.6144 8.61872 11.6265C8.88799 11.6416 9.03946 11.7265 9.17746 11.481C9.37773 11.0431 9.26666 10.4961 9.05292 10.0673C9.03609 10.0173 9.02263 9.95061 9.05124 9.88697C9.16063 9.67483 9.41476 9.75514 9.53425 9.86121C10.1351 10.3749 10.4851 11.0734 10.6635 11.7962C10.9412 13.1447 9.40298 13.0811 8.39994 13.2584C7.86476 13.3508 7.44233 14.1797 6.88191 13.7039C6.63115 13.469 6.55373 13.1447 6.47632 12.8553C6.32317 12.2841 6.17338 11.6037 6.62778 11.1007C7.19494 10.4673 8.15927 10.2188 9.00243 10.3931L8.9957 10.434L8.99907 10.4294Z" fill="#050001"/>
</svg>
