<?xml version="1.0" encoding="UTF-8"?><svg id="a" xmlns="http://www.w3.org/2000/svg" viewBox="0 0 140 140"><path d="M99.43,4.03H40.57c-12.75,0-23.09,10.34-23.09,23.09V93.92c0,12.75,10.34,23.09,23.09,23.09h58.87c12.75,0,23.09-10.34,23.09-23.09V27.12c0-12.75-10.34-23.09-23.09-23.09ZM36.39,97.88c-3.56,0-6.44-2.88-6.44-6.44s2.88-6.44,6.44-6.44,6.44,2.88,6.44,6.44-2.88,6.44-6.44,6.44Zm29.26-42.41c0,2.79-2.26,5.04-5.04,5.04h-27.47c-2.79,0-5.04-2.26-5.04-5.04v-17.38c0-2.79,2.26-5.04,5.04-5.04h27.47c2.79,0,5.04,2.26,5.04,5.04v17.38Zm-1.61-39.06c0-3.56,2.88-6.44,6.44-6.44s6.44,2.88,6.44,6.44-2.88,6.44-6.44,6.44-6.44-2.88-6.44-6.44Zm39.57,81.47c-3.56,0-6.44-2.88-6.44-6.44s2.88-6.44,6.44-6.44,6.44,2.88,6.44,6.44-2.88,6.44-6.44,6.44Zm8.3-42.41c0,2.79-2.26,5.04-5.04,5.04h-27.47c-2.79,0-5.04-2.26-5.04-5.04v-17.38c0-2.79,2.26-5.04,5.04-5.04h27.47c2.79,0,5.04,2.26,5.04,5.04v17.38Z" style="fill:#fff;"/><rect x="45.68" y="121.62" width="48.64" height="5.49" style="fill:#fff;"/><rect x="45.68" y="130.48" width="48.64" height="5.49" style="fill:#fff;"/></svg>