<svg width="214" height="86" viewBox="0 0 214 86" fill="none" xmlns="http://www.w3.org/2000/svg">
<path d="M27.026 9.16C25.826 10.0667 24.786 11.1333 23.906 12.36C23.026 13.56 22.226 14.8533 21.506 16.24C20.8127 17.6267 20.1727 19.0667 19.586 20.56C19.026 22.0533 18.466 23.56 17.906 25.08C17.346 26.5733 16.746 28.04 16.106 29.48C15.4927 30.8933 14.7727 32.2267 13.946 33.48L14.026 33.56C14.8527 32.7867 15.746 31.92 16.706 30.96C17.6927 30 18.6927 29 19.706 27.96C20.746 26.92 21.7727 25.8667 22.786 24.8C23.7994 23.7333 24.7594 22.6933 25.666 21.68C26.5994 20.6667 27.4527 19.7067 28.226 18.8C28.9994 17.8667 29.6394 17.04 30.146 16.32C30.306 16.08 30.546 15.72 30.866 15.24C31.2127 14.76 31.586 14.24 31.986 13.68C32.386 13.0933 32.826 12.4933 33.306 11.88C33.786 11.2667 34.266 10.72 34.746 10.24C35.226 9.73333 35.6927 9.32 36.146 9C36.5994 8.68 37.0127 8.52 37.386 8.52C37.5194 8.52 37.6394 8.57333 37.746 8.68C37.8527 8.76 37.906 8.89333 37.906 9.08C37.906 9.24 37.8394 9.42667 37.706 9.64C37.5727 9.82667 37.4127 10.0267 37.226 10.24C37.066 10.4267 36.8794 10.6133 36.666 10.8C36.4527 10.9867 36.266 11.1467 36.106 11.28C34.986 12.2667 34.0527 13.36 33.306 14.56C32.5594 15.7333 31.8927 16.9867 31.306 18.32C30.746 19.6533 30.2394 21.0267 29.786 22.44C29.3327 23.8267 28.8394 25.2267 28.306 26.64C27.7994 28.0267 27.2127 29.4 26.546 30.76C25.906 32.0933 25.0927 33.36 24.106 34.56L24.186 34.64C25.4127 33.8133 26.7594 32.9067 28.226 31.92C29.6927 30.9333 31.1594 29.88 32.626 28.76C34.1194 27.6133 35.5594 26.4 36.946 25.12C38.3594 23.84 39.626 22.5067 40.746 21.12C41.866 19.7067 42.7994 18.24 43.546 16.72C44.2927 15.2 44.746 13.6267 44.906 12C44.6127 11.84 44.386 11.6133 44.226 11.32C44.0927 11 44.026 10.6667 44.026 10.32C44.026 9.89333 44.1727 9.54667 44.466 9.28C44.786 8.98666 45.1727 8.84 45.626 8.84C45.946 8.84 46.2127 8.92 46.426 9.08C46.666 9.21333 46.8527 9.4 46.986 9.64C47.146 9.85333 47.2527 10.1067 47.306 10.4C47.3594 10.6667 47.386 10.9333 47.386 11.2C47.386 12.3733 47.0527 13.6133 46.386 14.92C45.746 16.2267 44.906 17.5333 43.866 18.84C42.826 20.1467 41.6394 21.4533 40.306 22.76C38.9994 24.04 37.666 25.24 36.306 26.36C34.9727 27.48 33.6794 28.5067 32.426 29.44C31.1727 30.3733 30.0927 31.1467 29.186 31.76C28.546 32.1867 27.8527 32.6533 27.106 33.16C26.3594 33.64 25.626 34.1333 24.906 34.64C24.2127 35.12 23.5594 35.6 22.946 36.08C22.3327 36.5333 21.8394 36.9467 21.466 37.32L21.226 37C22.186 35.6667 23.0127 34.2267 23.706 32.68C24.3994 31.1067 25.0394 29.4933 25.626 27.84C26.2127 26.16 26.7994 24.48 27.386 22.8C27.9994 21.12 28.6794 19.52 29.426 18L29.346 17.96C28.466 19.0533 27.4127 20.2933 26.186 21.68C24.9594 23.0667 23.6394 24.5067 22.226 26C20.8127 27.4667 19.3594 28.9333 17.866 30.4C16.3994 31.84 14.9727 33.1867 13.586 34.44C13.186 34.8133 12.826 35.1733 12.506 35.52C12.2127 35.8667 11.946 36.1733 11.706 36.44C11.466 36.7067 11.226 36.92 10.986 37.08C10.7727 37.24 10.5194 37.32 10.226 37.32C9.85271 37.32 9.66604 37.1867 9.66604 36.92C9.66604 36.76 9.75937 36.6 9.94604 36.44C10.1327 36.28 10.346 36.1067 10.586 35.92C10.826 35.7333 11.0527 35.56 11.266 35.4C11.506 35.2133 11.6794 35.0267 11.786 34.84C12.5594 33.5067 13.2127 32.1067 13.746 30.64C14.306 29.1733 14.826 27.7067 15.306 26.24C15.786 24.7467 16.2927 23.2667 16.826 21.8C17.3594 20.3067 17.986 18.8667 18.706 17.48C19.4527 16.0933 20.346 14.7733 21.386 13.52C22.4527 12.24 23.7594 11.08 25.306 10.04L25.226 9.96C24.346 10.36 23.3194 10.7333 22.146 11.08C20.9727 11.4267 19.7594 11.8133 18.506 12.24C17.2794 12.64 16.066 13.08 14.866 13.56C13.666 14.04 12.586 14.6 11.626 15.24C10.6927 15.8533 9.93271 16.5733 9.34604 17.4C8.78604 18.2 8.50604 19.1333 8.50604 20.2C8.50604 21.1867 8.77271 21.9467 9.30604 22.48C9.83937 23.0133 10.5327 23.28 11.386 23.28C11.9994 23.28 12.5594 23.16 13.066 22.92C13.5727 22.68 13.9994 22.36 14.346 21.96C14.7194 21.56 14.9994 21.1067 15.186 20.6C15.3727 20.0933 15.466 19.5867 15.466 19.08C15.466 18.92 15.4527 18.76 15.426 18.6C15.426 18.44 15.4127 18.28 15.386 18.12H15.866C15.8927 18.28 15.906 18.44 15.906 18.6C15.9327 18.76 15.946 18.92 15.946 19.08C15.946 19.7467 15.826 20.3733 15.586 20.96C15.346 21.52 15.0127 22.0133 14.586 22.44C14.186 22.8667 13.6927 23.2 13.106 23.44C12.546 23.6533 11.9327 23.76 11.266 23.76C10.146 23.76 9.21271 23.44 8.46604 22.8C7.74604 22.16 7.38604 21.24 7.38604 20.04C7.38604 18.84 7.70604 17.8133 8.34604 16.96C9.01271 16.08 9.90604 15.3067 11.026 14.64C12.146 13.9733 13.466 13.3733 14.986 12.84C16.506 12.3067 18.1194 11.8 19.826 11.32C21.2394 10.92 22.3727 10.5867 23.226 10.32C24.106 10.0533 24.7994 9.82667 25.306 9.64C25.8127 9.45333 26.1727 9.30666 26.386 9.2C26.626 9.06666 26.786 8.94666 26.866 8.84L27.026 9.16ZM49.4661 24.52C49.4661 24.1467 49.3595 23.8667 49.1461 23.68C48.9595 23.4933 48.7195 23.4 48.4261 23.4C47.8661 23.4 47.2528 23.6267 46.5861 24.08C45.9461 24.5067 45.3061 25.0533 44.6661 25.72C44.0261 26.36 43.4395 27.0533 42.9061 27.8C42.3995 28.5467 42.0128 29.2133 41.7461 29.8C42.3328 29.6933 43.0661 29.4933 43.9461 29.2C44.8261 28.88 45.6661 28.4933 46.4661 28.04C47.2928 27.5867 47.9995 27.0667 48.5861 26.48C49.1728 25.8667 49.4661 25.2133 49.4661 24.52ZM55.9461 26.64C55.5461 27.3067 55.0395 28.04 54.4261 28.84C53.8395 29.64 53.1595 30.44 52.3861 31.24C51.6395 32.0133 50.8261 32.7733 49.9461 33.52C49.0928 34.24 48.1995 34.8933 47.2661 35.48C46.3328 36.04 45.3861 36.4933 44.4261 36.84C43.4928 37.16 42.5728 37.32 41.6661 37.32C40.5461 37.32 39.6795 37.04 39.0661 36.48C38.4528 35.8933 38.1461 35.0667 38.1461 34C38.1461 32.8267 38.4928 31.6 39.1861 30.32C39.9061 29.0133 40.8128 27.8133 41.9061 26.72C42.9995 25.6267 44.1995 24.72 45.5061 24C46.8128 23.28 48.0661 22.92 49.2661 22.92C49.9328 22.92 50.4528 23.0667 50.8261 23.36C51.1995 23.6267 51.3861 24.0267 51.3861 24.56C51.3861 25.2 51.0395 25.8267 50.3461 26.44C49.6528 27.0267 48.7995 27.5733 47.7861 28.08C46.7995 28.56 45.7328 29 44.5861 29.4C43.4395 29.7733 42.4261 30.0533 41.5461 30.24C41.2528 30.7733 41.0128 31.3733 40.8261 32.04C40.6395 32.7067 40.5461 33.3733 40.5461 34.04C40.5461 34.36 40.5728 34.68 40.6261 35C40.7061 35.2933 40.8128 35.5733 40.9461 35.84C41.1061 36.08 41.3061 36.28 41.5461 36.44C41.8128 36.6 42.1328 36.68 42.5061 36.68C43.3861 36.68 44.4128 36.4 45.5861 35.84C46.7861 35.2533 47.9995 34.48 49.2261 33.52C50.4528 32.56 51.6261 31.4667 52.7461 30.24C53.8661 29.0133 54.8261 27.7467 55.6261 26.44L55.9461 26.64ZM75.5998 23.24H78.1998C77.2131 24.6267 76.2665 25.9733 75.3598 27.28C74.4531 28.5867 73.6398 29.8 72.9198 30.92C72.2265 32.0133 71.6665 32.9867 71.2398 33.84C70.8131 34.6667 70.5998 35.32 70.5998 35.8C70.5998 36.4933 70.9598 36.84 71.6798 36.84C72.2398 36.84 72.9465 36.5733 73.7998 36.04C74.6798 35.48 75.6265 34.72 76.6398 33.76C77.6531 32.8 78.6931 31.68 79.7598 30.4C80.8265 29.12 81.8398 27.76 82.7998 26.32L83.0398 26.4C82.3198 27.4933 81.4665 28.68 80.4798 29.96C79.5198 31.2133 78.5065 32.3867 77.4398 33.48C76.3731 34.5733 75.3065 35.4933 74.2398 36.24C73.1731 36.96 72.1731 37.32 71.2398 37.32C70.4665 37.32 69.8931 37.1333 69.5198 36.76C69.1731 36.36 68.9998 35.8933 68.9998 35.36C68.9998 34.9867 69.0531 34.6267 69.1598 34.28C69.2931 33.9067 69.4265 33.5333 69.5598 33.16L69.4798 33.12C69.1331 33.4933 68.6931 33.9333 68.1598 34.44C67.6531 34.92 67.0931 35.3733 66.4798 35.8C65.8931 36.2267 65.2798 36.5867 64.6398 36.88C63.9998 37.1733 63.3865 37.32 62.7998 37.32C61.8131 37.32 61.1198 37.0133 60.7198 36.4C60.3198 35.7867 60.1198 35.0933 60.1198 34.32C60.1198 33.2267 60.4665 32.0267 61.1598 30.72C61.8531 29.3867 62.7331 28.1467 63.7998 27C64.8665 25.8267 66.0265 24.8533 67.2798 24.08C68.5331 23.3067 69.7198 22.92 70.8398 22.92C71.3731 22.92 71.8398 23 72.2398 23.16C72.6398 23.2933 72.9731 23.4933 73.2398 23.76C73.5065 24 73.7065 24.28 73.8398 24.6C73.9998 24.92 74.1198 25.2533 74.1998 25.6H74.2798L75.5998 23.24ZM62.5198 34.44C62.5198 35.0533 62.6398 35.5333 62.8798 35.88C63.1465 36.2 63.5065 36.36 63.9598 36.36C64.4131 36.36 64.9465 36.2 65.5598 35.88C66.1731 35.5333 66.8131 35.08 67.4798 34.52C68.1465 33.96 68.7998 33.32 69.4398 32.6C70.1065 31.8533 70.6931 31.0667 71.1998 30.24C71.7065 29.4133 72.1198 28.5733 72.4398 27.72C72.7598 26.8667 72.9198 26.0533 72.9198 25.28C72.9198 24.6667 72.7465 24.2 72.3998 23.88C72.0531 23.56 71.6265 23.4 71.1198 23.4C70.3198 23.4 69.4265 23.7467 68.4398 24.44C67.4531 25.1333 66.5198 26.0267 65.6398 27.12C64.7598 28.1867 64.0131 29.3733 63.3998 30.68C62.8131 31.9867 62.5198 33.24 62.5198 34.44ZM86.4399 23.24L81.3599 30.64L81.4399 30.72C81.8132 30.2667 82.2799 29.7467 82.8399 29.16C83.4266 28.5467 84.0532 27.9333 84.7199 27.32C85.4132 26.68 86.1332 26.0533 86.8799 25.44C87.6266 24.8267 88.3599 24.28 89.0799 23.8C89.2132 23.5333 89.3599 23.32 89.5199 23.16C89.6799 23 89.9999 22.92 90.4799 22.92C90.7732 22.92 91.0266 22.9333 91.2399 22.96C91.4799 22.96 91.7199 22.9733 91.9599 23C91.5066 23.4533 91.0666 24.0133 90.6399 24.68C90.2132 25.32 89.9999 26.0267 89.9999 26.8C89.9999 27.4133 90.1466 27.8933 90.4399 28.24C90.7599 28.5867 91.1466 28.76 91.5999 28.76C91.9999 28.76 92.3866 28.68 92.7599 28.52C93.1599 28.36 93.5332 28.16 93.8799 27.92C94.2266 27.68 94.5599 27.4267 94.8799 27.16C95.1999 26.8933 95.4799 26.6533 95.7199 26.44L95.9599 26.6C95.6932 26.8667 95.3866 27.16 95.0399 27.48C94.6932 27.7733 94.3199 28.0533 93.9199 28.32C93.5199 28.5867 93.0932 28.8133 92.6399 29C92.1866 29.16 91.7199 29.24 91.2399 29.24C90.3866 29.24 89.6932 28.9867 89.1599 28.48C88.6532 27.9467 88.3999 27.2133 88.3999 26.28C88.3999 25.64 88.5466 25.0667 88.8399 24.56L88.7599 24.48C87.6666 25.2267 86.4666 26.2133 85.1599 27.44C83.8532 28.64 82.4666 30.0667 80.9999 31.72C80.4666 32.3067 79.9066 33.08 79.3199 34.04C78.7599 35 78.2666 35.9867 77.8399 37H75.2399C76.6799 34.7067 78.1199 32.4267 79.5599 30.16C80.9999 27.8933 82.4799 25.5867 83.9999 23.24H86.4399ZM102.547 24.52C102.547 24.1467 102.44 23.8667 102.227 23.68C102.04 23.4933 101.8 23.4 101.507 23.4C100.947 23.4 100.334 23.6267 99.6669 24.08C99.0269 24.5067 98.3869 25.0533 97.7469 25.72C97.1069 26.36 96.5202 27.0533 95.9869 27.8C95.4802 28.5467 95.0935 29.2133 94.8269 29.8C95.4135 29.6933 96.1469 29.4933 97.0269 29.2C97.9069 28.88 98.7469 28.4933 99.5469 28.04C100.374 27.5867 101.08 27.0667 101.667 26.48C102.254 25.8667 102.547 25.2133 102.547 24.52ZM109.027 26.64C108.627 27.3067 108.12 28.04 107.507 28.84C106.92 29.64 106.24 30.44 105.467 31.24C104.72 32.0133 103.907 32.7733 103.027 33.52C102.174 34.24 101.28 34.8933 100.347 35.48C99.4135 36.04 98.4669 36.4933 97.5069 36.84C96.5735 37.16 95.6535 37.32 94.7469 37.32C93.6269 37.32 92.7602 37.04 92.1469 36.48C91.5335 35.8933 91.2269 35.0667 91.2269 34C91.2269 32.8267 91.5735 31.6 92.2669 30.32C92.9869 29.0133 93.8935 27.8133 94.9869 26.72C96.0802 25.6267 97.2802 24.72 98.5869 24C99.8935 23.28 101.147 22.92 102.347 22.92C103.014 22.92 103.534 23.0667 103.907 23.36C104.28 23.6267 104.467 24.0267 104.467 24.56C104.467 25.2 104.12 25.8267 103.427 26.44C102.734 27.0267 101.88 27.5733 100.867 28.08C99.8802 28.56 98.8135 29 97.6669 29.4C96.5202 29.7733 95.5069 30.0533 94.6269 30.24C94.3335 30.7733 94.0935 31.3733 93.9069 32.04C93.7202 32.7067 93.6269 33.3733 93.6269 34.04C93.6269 34.36 93.6535 34.68 93.7069 35C93.7869 35.2933 93.8935 35.5733 94.0269 35.84C94.1869 36.08 94.3869 36.28 94.6269 36.44C94.8935 36.6 95.2135 36.68 95.5869 36.68C96.4669 36.68 97.4935 36.4 98.6669 35.84C99.8669 35.2533 101.08 34.48 102.307 33.52C103.534 32.56 104.707 31.4667 105.827 30.24C106.947 29.0133 107.907 27.7467 108.707 26.44L109.027 26.64ZM131.561 23.24C129.961 25.4 128.441 27.6 127.001 29.84C125.587 32.08 124.121 34.3067 122.601 36.52C123.934 36.2267 125.241 35.7467 126.521 35.08C127.827 34.4133 129.054 33.6133 130.201 32.68C131.347 31.7467 132.401 30.72 133.361 29.6C134.347 28.48 135.174 27.3467 135.841 26.2L136.001 26.44C134.827 28.44 133.534 30.1067 132.121 31.44C130.734 32.7733 129.387 33.84 128.081 34.64C126.774 35.44 125.601 36.0267 124.561 36.4C123.521 36.7467 122.774 36.9467 122.321 37C122.187 37.08 121.921 37.4267 121.521 38.04C121.121 38.6533 120.587 39.4 119.921 40.28C119.254 41.16 118.454 42.0933 117.521 43.08C116.614 44.0667 115.574 44.9733 114.401 45.8C113.254 46.6533 111.974 47.36 110.561 47.92C109.147 48.48 107.627 48.76 106.001 48.76C105.041 48.76 104.147 48.6533 103.321 48.44C102.494 48.2267 101.787 47.92 101.201 47.52C100.587 47.12 100.121 46.64 99.8005 46.08C99.4538 45.52 99.2805 44.8933 99.2805 44.2C99.2805 43.0533 99.6938 42.0933 100.521 41.32C101.347 40.5733 102.387 40.2 103.641 40.2C103.907 40.2 104.134 40.2133 104.321 40.24C104.481 40.2667 104.654 40.3067 104.841 40.36V40.68H104.521C103.481 40.68 102.707 41 102.201 41.64C101.694 42.3067 101.441 43.1867 101.441 44.28C101.441 45 101.574 45.6133 101.841 46.12C102.081 46.6267 102.427 47.04 102.881 47.36C103.307 47.68 103.814 47.9067 104.401 48.04C104.987 48.2 105.627 48.28 106.321 48.28C107.494 48.28 108.654 48 109.801 47.44C110.921 46.9067 112.001 46.1867 113.041 45.28C114.081 44.4 115.067 43.4 116.001 42.28C116.961 41.16 117.854 40.0267 118.681 38.88C119.534 37.76 120.307 36.68 121.001 35.64C121.694 34.5733 122.307 33.6667 122.841 32.92L122.761 32.84C122.334 33.3467 121.854 33.8667 121.321 34.4C120.814 34.9067 120.267 35.3867 119.681 35.84C119.094 36.2667 118.481 36.6267 117.841 36.92C117.201 37.1867 116.534 37.32 115.841 37.32C115.334 37.32 114.894 37.2267 114.521 37.04C114.147 36.8533 113.841 36.6133 113.601 36.32C113.361 36 113.187 35.6533 113.081 35.28C112.974 34.9067 112.921 34.5467 112.921 34.2C112.921 33.3733 113.094 32.52 113.441 31.64C113.814 30.76 114.294 29.9067 114.881 29.08C115.467 28.2267 116.147 27.44 116.921 26.72C117.694 25.9733 118.494 25.32 119.321 24.76C120.174 24.2 121.027 23.76 121.881 23.44C122.734 23.0933 123.521 22.92 124.241 22.92C125.281 22.92 126.027 23.1867 126.481 23.72C126.961 24.2267 127.201 24.8267 127.201 25.52H127.321L128.801 23.24H131.561ZM124.161 23.4C123.281 23.4 122.321 23.7733 121.281 24.52C120.267 25.24 119.307 26.1467 118.401 27.24C117.521 28.3333 116.787 29.52 116.201 30.8C115.614 32.08 115.321 33.28 115.321 34.4C115.321 34.9867 115.467 35.4667 115.761 35.84C116.081 36.1867 116.481 36.36 116.961 36.36C117.334 36.36 117.814 36.2133 118.401 35.92C119.014 35.6 119.641 35.1733 120.281 34.64C120.947 34.08 121.614 33.44 122.281 32.72C122.947 31.9733 123.534 31.1867 124.041 30.36C124.574 29.5333 125.001 28.68 125.321 27.8C125.667 26.8933 125.841 26 125.841 25.12C125.841 24.6667 125.707 24.2667 125.441 23.92C125.201 23.5733 124.774 23.4 124.161 23.4ZM142.641 24.52C142.641 24.1467 142.534 23.8667 142.321 23.68C142.134 23.4933 141.894 23.4 141.601 23.4C141.041 23.4 140.427 23.6267 139.761 24.08C139.121 24.5067 138.481 25.0533 137.841 25.72C137.201 26.36 136.614 27.0533 136.081 27.8C135.574 28.5467 135.187 29.2133 134.921 29.8C135.507 29.6933 136.241 29.4933 137.121 29.2C138.001 28.88 138.841 28.4933 139.641 28.04C140.467 27.5867 141.174 27.0667 141.761 26.48C142.347 25.8667 142.641 25.2133 142.641 24.52ZM149.121 26.64C148.721 27.3067 148.214 28.04 147.601 28.84C147.014 29.64 146.334 30.44 145.561 31.24C144.814 32.0133 144.001 32.7733 143.121 33.52C142.267 34.24 141.374 34.8933 140.441 35.48C139.507 36.04 138.561 36.4933 137.601 36.84C136.667 37.16 135.747 37.32 134.841 37.32C133.721 37.32 132.854 37.04 132.241 36.48C131.627 35.8933 131.321 35.0667 131.321 34C131.321 32.8267 131.667 31.6 132.361 30.32C133.081 29.0133 133.987 27.8133 135.081 26.72C136.174 25.6267 137.374 24.72 138.681 24C139.987 23.28 141.241 22.92 142.441 22.92C143.107 22.92 143.627 23.0667 144.001 23.36C144.374 23.6267 144.561 24.0267 144.561 24.56C144.561 25.2 144.214 25.8267 143.521 26.44C142.827 27.0267 141.974 27.5733 140.961 28.08C139.974 28.56 138.907 29 137.761 29.4C136.614 29.7733 135.601 30.0533 134.721 30.24C134.427 30.7733 134.187 31.3733 134.001 32.04C133.814 32.7067 133.721 33.3733 133.721 34.04C133.721 34.36 133.747 34.68 133.801 35C133.881 35.2933 133.987 35.5733 134.121 35.84C134.281 36.08 134.481 36.28 134.721 36.44C134.987 36.6 135.307 36.68 135.681 36.68C136.561 36.68 137.587 36.4 138.761 35.84C139.961 35.2533 141.174 34.48 142.401 33.52C143.627 32.56 144.801 31.4667 145.921 30.24C147.041 29.0133 148.001 27.7467 148.801 26.44L149.121 26.64ZM155.468 18.6L152.308 23.24H157.588L157.348 23.72H151.988C150.921 25.4533 149.961 26.96 149.108 28.24C148.281 29.4933 147.574 30.5867 146.988 31.52C146.428 32.4267 146.001 33.2 145.708 33.84C145.414 34.4533 145.268 35 145.268 35.48C145.268 35.9867 145.441 36.3467 145.788 36.56C146.134 36.7467 146.534 36.84 146.988 36.84C147.948 36.84 149.001 36.48 150.148 35.76C151.321 35.0133 152.481 34.1067 153.628 33.04C154.774 31.9733 155.868 30.84 156.908 29.64C157.948 28.44 158.828 27.36 159.548 26.4L159.788 26.56C158.881 27.7067 157.881 28.92 156.788 30.2C155.721 31.4533 154.614 32.6133 153.468 33.68C152.321 34.72 151.161 35.5867 149.988 36.28C148.841 36.9733 147.748 37.32 146.708 37.32C145.881 37.32 145.161 37.0667 144.548 36.56C143.961 36.0533 143.668 35.3467 143.668 34.44C143.668 33.8267 143.841 33.1467 144.188 32.4C144.534 31.6267 144.988 30.8 145.548 29.92C146.108 29.04 146.734 28.08 147.428 27.04C148.148 26 148.881 24.8933 149.628 23.72H147.468L147.708 23.24H149.948L153.068 18.6H155.468ZM166.267 18.6L163.107 23.24H168.387L168.147 23.72H162.787C161.72 25.4533 160.76 26.96 159.907 28.24C159.08 29.4933 158.374 30.5867 157.787 31.52C157.227 32.4267 156.8 33.2 156.507 33.84C156.214 34.4533 156.067 35 156.067 35.48C156.067 35.9867 156.24 36.3467 156.587 36.56C156.934 36.7467 157.334 36.84 157.787 36.84C158.747 36.84 159.8 36.48 160.947 35.76C162.12 35.0133 163.28 34.1067 164.427 33.04C165.574 31.9733 166.667 30.84 167.707 29.64C168.747 28.44 169.627 27.36 170.347 26.4L170.587 26.56C169.68 27.7067 168.68 28.92 167.587 30.2C166.52 31.4533 165.414 32.6133 164.267 33.68C163.12 34.72 161.96 35.5867 160.787 36.28C159.64 36.9733 158.547 37.32 157.507 37.32C156.68 37.32 155.96 37.0667 155.347 36.56C154.76 36.0533 154.467 35.3467 154.467 34.44C154.467 33.8267 154.64 33.1467 154.987 32.4C155.334 31.6267 155.787 30.8 156.347 29.92C156.907 29.04 157.534 28.08 158.227 27.04C158.947 26 159.68 24.8933 160.427 23.72H158.267L158.507 23.24H160.747L163.867 18.6H166.267ZM174.507 23.24C173.04 25.3467 171.8 27.12 170.787 28.56C169.773 30 168.947 31.2 168.307 32.16C167.693 33.12 167.24 33.88 166.947 34.44C166.68 35 166.547 35.4533 166.547 35.8C166.547 36.4933 166.827 36.84 167.387 36.84C167.92 36.84 168.533 36.6533 169.227 36.28C169.947 35.88 170.693 35.3733 171.467 34.76C172.24 34.1467 173.013 33.4533 173.787 32.68C174.56 31.9067 175.28 31.1467 175.947 30.4C176.64 29.6267 177.24 28.8933 177.747 28.2C178.28 27.48 178.667 26.8933 178.907 26.44L179.227 26.64C178.907 27.1733 178.467 27.8133 177.907 28.56C177.373 29.3067 176.76 30.08 176.067 30.88C175.373 31.6533 174.64 32.4267 173.867 33.2C173.093 33.9733 172.307 34.6667 171.507 35.28C170.707 35.8933 169.92 36.3867 169.147 36.76C168.4 37.1333 167.707 37.32 167.067 37.32C166.347 37.32 165.813 37.12 165.467 36.72C165.12 36.32 164.947 35.88 164.947 35.4C164.947 34.84 165.067 34.2533 165.307 33.64C165.573 33 165.987 32.2267 166.547 31.32C167.107 30.4133 167.827 29.32 168.707 28.04C169.613 26.7333 170.693 25.1333 171.947 23.24H174.507ZM176.827 15.8C177.2 15.8 177.507 15.9333 177.747 16.2C177.987 16.44 178.107 16.7467 178.107 17.12C178.107 17.4933 177.987 17.8133 177.747 18.08C177.507 18.32 177.2 18.44 176.827 18.44C176.453 18.44 176.147 18.32 175.907 18.08C175.667 17.8133 175.547 17.4933 175.547 17.12C175.547 16.7467 175.667 16.44 175.907 16.2C176.147 15.9333 176.453 15.8 176.827 15.8ZM182.56 23.24L177.28 30.56L177.36 30.64C177.92 29.9733 178.574 29.2 179.32 28.32C180.067 27.4133 180.867 26.56 181.72 25.76C182.574 24.96 183.454 24.2933 184.36 23.76C185.294 23.2 186.214 22.92 187.12 22.92C187.92 22.92 188.534 23.1467 188.96 23.6C189.414 24.0267 189.64 24.5867 189.64 25.28C189.64 25.7067 189.48 26.2133 189.16 26.8C188.867 27.3867 188.494 28.0133 188.04 28.68C187.587 29.3467 187.094 30.0267 186.56 30.72C186.027 31.4133 185.534 32.08 185.08 32.72C184.627 33.3333 184.24 33.9067 183.92 34.44C183.627 34.9467 183.48 35.3733 183.48 35.72C183.48 36.4667 183.854 36.84 184.6 36.84C185.454 36.84 186.36 36.56 187.32 36C188.28 35.4133 189.427 34.44 190.76 33.08C191.294 32.5467 191.827 31.96 192.36 31.32C192.92 30.68 193.454 30.0533 193.96 29.44C194.467 28.8 194.92 28.2 195.32 27.64C195.747 27.08 196.08 26.6133 196.32 26.24L196.6 26.4C196.067 27.2 195.374 28.16 194.52 29.28C193.694 30.3733 192.787 31.4533 191.8 32.52C191.214 33.16 190.614 33.7733 190 34.36C189.387 34.9467 188.774 35.4667 188.16 35.92C187.547 36.3467 186.934 36.6933 186.32 36.96C185.734 37.2 185.147 37.32 184.56 37.32C183.787 37.32 183.147 37.1067 182.64 36.68C182.134 36.2533 181.88 35.6667 181.88 34.92C181.88 34.12 182.2 33.2533 182.84 32.32C183.48 31.36 184.187 30.4 184.96 29.44C185.734 28.48 186.44 27.56 187.08 26.68C187.72 25.8 188.04 25.0267 188.04 24.36C188.04 24.04 187.934 23.8 187.72 23.64C187.507 23.48 187.227 23.4 186.88 23.4C186.214 23.4 185.467 23.6533 184.64 24.16C183.814 24.64 182.96 25.2933 182.08 26.12C181.227 26.92 180.36 27.8267 179.48 28.84C178.627 29.8267 177.827 30.8267 177.08 31.84C176.334 32.8267 175.667 33.7867 175.08 34.72C174.494 35.6267 174.054 36.3867 173.76 37H171.28C171.974 35.8267 172.72 34.64 173.52 33.44C174.294 32.2133 175.067 31.0133 175.84 29.84C176.614 28.64 177.347 27.4933 178.04 26.4C178.76 25.28 179.4 24.2667 179.96 23.36L182.56 23.24ZM209.561 23.24C207.961 25.4 206.441 27.6 205.001 29.84C203.587 32.08 202.121 34.3067 200.601 36.52C201.934 36.2267 203.241 35.7467 204.521 35.08C205.827 34.4133 207.054 33.6133 208.201 32.68C209.347 31.7467 210.401 30.72 211.361 29.6C212.347 28.48 213.174 27.3467 213.841 26.2L214.001 26.44C212.827 28.44 211.534 30.1067 210.121 31.44C208.734 32.7733 207.387 33.84 206.081 34.64C204.774 35.44 203.601 36.0267 202.561 36.4C201.521 36.7467 200.774 36.9467 200.321 37C200.187 37.08 199.921 37.4267 199.521 38.04C199.121 38.6533 198.587 39.4 197.921 40.28C197.254 41.16 196.454 42.0933 195.521 43.08C194.614 44.0667 193.574 44.9733 192.401 45.8C191.254 46.6533 189.974 47.36 188.561 47.92C187.147 48.48 185.627 48.76 184.001 48.76C183.041 48.76 182.147 48.6533 181.321 48.44C180.494 48.2267 179.787 47.92 179.201 47.52C178.587 47.12 178.121 46.64 177.801 46.08C177.454 45.52 177.281 44.8933 177.281 44.2C177.281 43.0533 177.694 42.0933 178.521 41.32C179.347 40.5733 180.387 40.2 181.641 40.2C181.907 40.2 182.134 40.2133 182.321 40.24C182.481 40.2667 182.654 40.3067 182.841 40.36V40.68H182.521C181.481 40.68 180.707 41 180.201 41.64C179.694 42.3067 179.441 43.1867 179.441 44.28C179.441 45 179.574 45.6133 179.841 46.12C180.081 46.6267 180.427 47.04 180.881 47.36C181.307 47.68 181.814 47.9067 182.401 48.04C182.987 48.2 183.627 48.28 184.321 48.28C185.494 48.28 186.654 48 187.801 47.44C188.921 46.9067 190.001 46.1867 191.041 45.28C192.081 44.4 193.067 43.4 194.001 42.28C194.961 41.16 195.854 40.0267 196.681 38.88C197.534 37.76 198.307 36.68 199.001 35.64C199.694 34.5733 200.307 33.6667 200.841 32.92L200.761 32.84C200.334 33.3467 199.854 33.8667 199.321 34.4C198.814 34.9067 198.267 35.3867 197.681 35.84C197.094 36.2667 196.481 36.6267 195.841 36.92C195.201 37.1867 194.534 37.32 193.841 37.32C193.334 37.32 192.894 37.2267 192.521 37.04C192.147 36.8533 191.841 36.6133 191.601 36.32C191.361 36 191.187 35.6533 191.081 35.28C190.974 34.9067 190.921 34.5467 190.921 34.2C190.921 33.3733 191.094 32.52 191.441 31.64C191.814 30.76 192.294 29.9067 192.881 29.08C193.467 28.2267 194.147 27.44 194.921 26.72C195.694 25.9733 196.494 25.32 197.321 24.76C198.174 24.2 199.027 23.76 199.881 23.44C200.734 23.0933 201.521 22.92 202.241 22.92C203.281 22.92 204.027 23.1867 204.481 23.72C204.961 24.2267 205.201 24.8267 205.201 25.52H205.321L206.801 23.24H209.561ZM202.161 23.4C201.281 23.4 200.321 23.7733 199.281 24.52C198.267 25.24 197.307 26.1467 196.401 27.24C195.521 28.3333 194.787 29.52 194.201 30.8C193.614 32.08 193.321 33.28 193.321 34.4C193.321 34.9867 193.467 35.4667 193.761 35.84C194.081 36.1867 194.481 36.36 194.961 36.36C195.334 36.36 195.814 36.2133 196.401 35.92C197.014 35.6 197.641 35.1733 198.281 34.64C198.947 34.08 199.614 33.44 200.281 32.72C200.947 31.9733 201.534 31.1867 202.041 30.36C202.574 29.5333 203.001 28.68 203.321 27.8C203.667 26.8933 203.841 26 203.841 25.12C203.841 24.6667 203.707 24.2667 203.441 23.92C203.201 23.5733 202.774 23.4 202.161 23.4Z" fill="black"/>
<path d="M84.2325 62.24C83.4058 64.08 82.4058 65.68 81.2325 67.04C80.0592 68.4 78.7525 69.52 77.3125 70.4C75.8725 71.28 74.3125 71.9333 72.6325 72.36C70.9525 72.7867 69.2058 73 67.3925 73C66.8325 73 66.3658 73.0133 65.9925 73.04C65.6192 73.0933 65.3125 73.1333 65.0725 73.16C64.8325 73.2133 64.6325 73.2533 64.4725 73.28C64.3125 73.3067 64.1525 73.32 63.9925 73.32C63.7525 73.32 63.5525 73.28 63.3925 73.2C63.2325 73.1467 63.1525 73.04 63.1525 72.88C63.1525 72.6667 63.2592 72.5467 63.4725 72.52C63.7125 72.4667 63.8992 72.44 64.0325 72.44C64.4058 72.44 64.7658 72.4667 65.1125 72.52C65.4592 72.5733 65.8192 72.6267 66.1925 72.68C67.7925 71.9067 69.1525 70.8 70.2725 69.36C71.3925 67.8933 72.3925 66.2667 73.2725 64.48C74.1525 62.6667 74.9658 60.7733 75.7125 58.8C76.4858 56.8267 77.3258 54.96 78.2325 53.2C79.1658 51.4133 80.2325 49.8133 81.4325 48.4C82.6325 46.96 84.0992 45.88 85.8325 45.16L85.7525 45.08C84.6058 45.2667 83.3792 45.7733 82.0725 46.6C80.7658 47.4267 79.4458 48.4667 78.1125 49.72C76.8058 50.9467 75.4992 52.3333 74.1925 53.88C72.9125 55.4 71.6858 56.9733 70.5125 58.6C69.6058 59.88 68.6725 61.1867 67.7125 62.52C66.7792 63.8533 65.8058 65.16 64.7925 66.44C63.7792 67.6933 62.6992 68.9067 61.5525 70.08C60.4058 71.2533 59.1525 72.3333 57.7925 73.32L57.5125 72.92C58.4458 71.4533 59.1925 69.88 59.7525 68.2C60.3392 66.52 60.8725 64.8133 61.3525 63.08C61.8592 61.3467 62.3658 59.6267 62.8725 57.92C63.3792 56.2133 64.0192 54.5867 64.7925 53.04C65.5925 51.4933 66.5792 50.0667 67.7525 48.76C68.9258 47.4533 70.4058 46.3467 72.1925 45.44L72.1125 45.36C70.3525 45.9467 68.7392 46.8 67.2725 47.92C65.8058 49.0133 64.4458 50.2667 63.1925 51.68C61.9392 53.0667 60.7792 54.5733 59.7125 56.2C58.6458 57.8 57.6192 59.4 56.6325 61C55.6458 62.6 54.6992 64.1467 53.7925 65.64C52.8858 67.1333 51.9525 68.4533 50.9925 69.6C50.0325 70.72 49.0058 71.6267 47.9125 72.32C46.8192 72.9867 45.5925 73.32 44.2325 73.32C43.8858 73.32 43.5392 73.2933 43.1925 73.24C42.8725 73.1867 42.5658 73.08 42.2725 72.92C42.0058 72.76 41.7792 72.5467 41.5925 72.28C41.4325 72.0133 41.3525 71.6667 41.3525 71.24C41.3525 70.84 41.4858 70.5067 41.7525 70.24C42.0192 69.9733 42.3525 69.84 42.7525 69.84C43.0992 69.84 43.3792 69.9733 43.5925 70.24C43.8058 70.5067 43.9125 70.8133 43.9125 71.16C43.9125 71.3733 43.8592 71.6 43.7525 71.84C43.6725 72.08 43.5258 72.2267 43.3125 72.28C43.3392 72.44 43.4992 72.5733 43.7925 72.68C44.0858 72.7867 44.3658 72.84 44.6325 72.84C45.8058 72.84 46.8992 72.48 47.9125 71.76C48.9258 71.0133 49.9125 70.04 50.8725 68.84C51.8592 67.6133 52.8325 66.2267 53.7925 64.68C54.7525 63.1067 55.7525 61.48 56.7925 59.8C58.0192 57.8533 59.2458 56.0267 60.4725 54.32C61.6992 52.6133 63.0192 51.0933 64.4325 49.76C65.8458 48.4 67.3925 47.2533 69.0725 46.32C70.7792 45.3867 72.7125 44.7067 74.8725 44.28L74.9125 44.64C73.2592 45.1467 71.8858 45.96 70.7925 47.08C69.6992 48.1733 68.7525 49.4667 67.9525 50.96C67.1792 52.4533 66.4992 54.08 65.9125 55.84C65.3525 57.6 64.7658 59.3867 64.1525 61.2C63.5658 62.9867 62.9125 64.7467 62.1925 66.48C61.4725 68.2133 60.5658 69.8133 59.4725 71.28L59.5525 71.36C60.5392 70.5067 61.5258 69.5067 62.5125 68.36C63.5258 67.1867 64.5125 65.9733 65.4725 64.72C66.4325 63.44 67.3525 62.1733 68.2325 60.92C69.1392 59.64 69.9792 58.4667 70.7525 57.4C72.8325 54.5467 74.7392 52.2533 76.4725 50.52C78.2058 48.7867 79.8058 47.4533 81.2725 46.52C82.7392 45.56 84.0725 44.92 85.2725 44.6C86.4992 44.28 87.6325 44.12 88.6725 44.12C89.0725 44.12 89.4592 44.1867 89.8325 44.32C90.2058 44.4267 90.3925 44.6133 90.3925 44.88C90.3925 45.0933 90.3125 45.2267 90.1525 45.28C89.9925 45.3333 89.8058 45.36 89.5925 45.36C89.2192 45.36 88.8192 45.32 88.3925 45.24C87.9925 45.1333 87.5925 45.08 87.1925 45.08C86.5792 45.08 85.9525 45.3467 85.3125 45.88C84.6992 46.4133 84.0725 47.1067 83.4325 47.96C82.8192 48.8133 82.2192 49.7733 81.6325 50.84C81.0458 51.88 80.4992 52.92 79.9925 53.96C79.5125 54.9733 79.0858 55.92 78.7125 56.8C78.3658 57.68 78.0858 58.3733 77.8725 58.88C77.4458 60.0267 76.9525 61.2533 76.3925 62.56C75.8325 63.84 75.1392 65.1067 74.3125 66.36C73.4858 67.5867 72.4725 68.7467 71.2725 69.84C70.0992 70.9333 68.6592 71.8533 66.9525 72.6V72.68C71.0058 72.68 74.4325 71.8 77.2325 70.04C80.0592 68.28 82.2858 65.6533 83.9125 62.16L84.2325 62.24ZM94.4592 59.24H97.0592C96.0725 60.6267 95.1258 61.9733 94.2192 63.28C93.3125 64.5867 92.4992 65.8 91.7792 66.92C91.0858 68.0133 90.5258 68.9867 90.0992 69.84C89.6725 70.6667 89.4592 71.32 89.4592 71.8C89.4592 72.4933 89.8192 72.84 90.5392 72.84C91.0992 72.84 91.8058 72.5733 92.6592 72.04C93.5392 71.48 94.4858 70.72 95.4992 69.76C96.5125 68.8 97.5525 67.68 98.6192 66.4C99.6858 65.12 100.699 63.76 101.659 62.32L101.899 62.4C101.179 63.4933 100.326 64.68 99.3392 65.96C98.3792 67.2133 97.3658 68.3867 96.2992 69.48C95.2325 70.5733 94.1658 71.4933 93.0992 72.24C92.0325 72.96 91.0325 73.32 90.0992 73.32C89.3258 73.32 88.7525 73.1333 88.3792 72.76C88.0325 72.36 87.8592 71.8933 87.8592 71.36C87.8592 70.9867 87.9125 70.6267 88.0192 70.28C88.1525 69.9067 88.2858 69.5333 88.4192 69.16L88.3392 69.12C87.9925 69.4933 87.5525 69.9333 87.0192 70.44C86.5125 70.92 85.9525 71.3733 85.3392 71.8C84.7525 72.2267 84.1392 72.5867 83.4992 72.88C82.8592 73.1733 82.2458 73.32 81.6592 73.32C80.6725 73.32 79.9792 73.0133 79.5792 72.4C79.1792 71.7867 78.9792 71.0933 78.9792 70.32C78.9792 69.2267 79.3258 68.0267 80.0192 66.72C80.7125 65.3867 81.5925 64.1467 82.6592 63C83.7258 61.8267 84.8858 60.8533 86.1392 60.08C87.3925 59.3067 88.5792 58.92 89.6992 58.92C90.2325 58.92 90.6992 59 91.0992 59.16C91.4992 59.2933 91.8325 59.4933 92.0992 59.76C92.3658 60 92.5658 60.28 92.6992 60.6C92.8592 60.92 92.9792 61.2533 93.0592 61.6H93.1392L94.4592 59.24ZM81.3792 70.44C81.3792 71.0533 81.4992 71.5333 81.7392 71.88C82.0058 72.2 82.3658 72.36 82.8192 72.36C83.2725 72.36 83.8058 72.2 84.4192 71.88C85.0325 71.5333 85.6725 71.08 86.3392 70.52C87.0058 69.96 87.6592 69.32 88.2992 68.6C88.9658 67.8533 89.5525 67.0667 90.0592 66.24C90.5658 65.4133 90.9792 64.5733 91.2992 63.72C91.6192 62.8667 91.7792 62.0533 91.7792 61.28C91.7792 60.6667 91.6058 60.2 91.2592 59.88C90.9125 59.56 90.4858 59.4 89.9792 59.4C89.1792 59.4 88.2858 59.7467 87.2992 60.44C86.3125 61.1333 85.3792 62.0267 84.4992 63.12C83.6192 64.1867 82.8725 65.3733 82.2592 66.68C81.6725 67.9867 81.3792 69.24 81.3792 70.44ZM105.299 59.24L100.219 66.64L100.299 66.72C100.673 66.2667 101.139 65.7467 101.699 65.16C102.286 64.5467 102.913 63.9333 103.579 63.32C104.273 62.68 104.993 62.0533 105.739 61.44C106.486 60.8267 107.219 60.28 107.939 59.8C108.073 59.5333 108.219 59.32 108.379 59.16C108.539 59 108.859 58.92 109.339 58.92C109.633 58.92 109.886 58.9333 110.099 58.96C110.339 58.96 110.579 58.9733 110.819 59C110.366 59.4533 109.926 60.0133 109.499 60.68C109.073 61.32 108.859 62.0267 108.859 62.8C108.859 63.4133 109.006 63.8933 109.299 64.24C109.619 64.5867 110.006 64.76 110.459 64.76C110.859 64.76 111.246 64.68 111.619 64.52C112.019 64.36 112.393 64.16 112.739 63.92C113.086 63.68 113.419 63.4267 113.739 63.16C114.059 62.8933 114.339 62.6533 114.579 62.44L114.819 62.6C114.553 62.8667 114.246 63.16 113.899 63.48C113.553 63.7733 113.179 64.0533 112.779 64.32C112.379 64.5867 111.953 64.8133 111.499 65C111.046 65.16 110.579 65.24 110.099 65.24C109.246 65.24 108.553 64.9867 108.019 64.48C107.513 63.9467 107.259 63.2133 107.259 62.28C107.259 61.64 107.406 61.0667 107.699 60.56L107.619 60.48C106.526 61.2267 105.326 62.2133 104.019 63.44C102.713 64.64 101.326 66.0667 99.8593 67.72C99.3259 68.3067 98.7659 69.08 98.1793 70.04C97.6193 71 97.1259 71.9867 96.6993 73H94.0993C95.5393 70.7067 96.9793 68.4267 98.4193 66.16C99.8593 63.8933 101.339 61.5867 102.859 59.24H105.299ZM118.286 59.24L113.206 66.64L113.286 66.72C113.66 66.2667 114.126 65.7467 114.686 65.16C115.273 64.5467 115.9 63.9333 116.566 63.32C117.26 62.68 117.98 62.0533 118.726 61.44C119.473 60.8267 120.206 60.28 120.926 59.8C121.06 59.5333 121.206 59.32 121.366 59.16C121.526 59 121.846 58.92 122.326 58.92C122.62 58.92 122.873 58.9333 123.086 58.96C123.326 58.96 123.566 58.9733 123.806 59C123.353 59.4533 122.913 60.0133 122.486 60.68C122.06 61.32 121.846 62.0267 121.846 62.8C121.846 63.4133 121.993 63.8933 122.286 64.24C122.606 64.5867 122.993 64.76 123.446 64.76C123.846 64.76 124.233 64.68 124.606 64.52C125.006 64.36 125.38 64.16 125.726 63.92C126.073 63.68 126.406 63.4267 126.726 63.16C127.046 62.8933 127.326 62.6533 127.566 62.44L127.806 62.6C127.54 62.8667 127.233 63.16 126.886 63.48C126.54 63.7733 126.166 64.0533 125.766 64.32C125.366 64.5867 124.94 64.8133 124.486 65C124.033 65.16 123.566 65.24 123.086 65.24C122.233 65.24 121.54 64.9867 121.006 64.48C120.5 63.9467 120.246 63.2133 120.246 62.28C120.246 61.64 120.393 61.0667 120.686 60.56L120.606 60.48C119.513 61.2267 118.313 62.2133 117.006 63.44C115.7 64.64 114.313 66.0667 112.846 67.72C112.313 68.3067 111.753 69.08 111.166 70.04C110.606 71 110.113 71.9867 109.686 73H107.086C108.526 70.7067 109.966 68.4267 111.406 66.16C112.846 63.8933 114.326 61.5867 115.846 59.24H118.286ZM131.673 59.24C130.207 61.3467 128.967 63.12 127.953 64.56C126.94 66 126.113 67.2 125.473 68.16C124.86 69.12 124.407 69.88 124.113 70.44C123.847 71 123.713 71.4533 123.713 71.8C123.713 72.4933 123.993 72.84 124.553 72.84C125.087 72.84 125.7 72.6533 126.393 72.28C127.113 71.88 127.86 71.3733 128.633 70.76C129.407 70.1467 130.18 69.4533 130.953 68.68C131.727 67.9067 132.447 67.1467 133.113 66.4C133.807 65.6267 134.407 64.8933 134.913 64.2C135.447 63.48 135.833 62.8933 136.073 62.44L136.393 62.64C136.073 63.1733 135.633 63.8133 135.073 64.56C134.54 65.3067 133.927 66.08 133.233 66.88C132.54 67.6533 131.807 68.4267 131.033 69.2C130.26 69.9733 129.473 70.6667 128.673 71.28C127.873 71.8933 127.087 72.3867 126.313 72.76C125.567 73.1333 124.873 73.32 124.233 73.32C123.513 73.32 122.98 73.12 122.633 72.72C122.287 72.32 122.113 71.88 122.113 71.4C122.113 70.84 122.233 70.2533 122.473 69.64C122.74 69 123.153 68.2267 123.713 67.32C124.273 66.4133 124.993 65.32 125.873 64.04C126.78 62.7333 127.86 61.1333 129.113 59.24H131.673ZM133.993 51.8C134.367 51.8 134.673 51.9333 134.913 52.2C135.153 52.44 135.273 52.7467 135.273 53.12C135.273 53.4933 135.153 53.8133 134.913 54.08C134.673 54.32 134.367 54.44 133.993 54.44C133.62 54.44 133.313 54.32 133.073 54.08C132.833 53.8133 132.713 53.4933 132.713 53.12C132.713 52.7467 132.833 52.44 133.073 52.2C133.313 51.9333 133.62 51.8 133.993 51.8ZM142.927 60.52C142.927 60.1467 142.82 59.8667 142.607 59.68C142.42 59.4933 142.18 59.4 141.887 59.4C141.327 59.4 140.714 59.6267 140.047 60.08C139.407 60.5067 138.767 61.0533 138.127 61.72C137.487 62.36 136.9 63.0533 136.367 63.8C135.86 64.5467 135.474 65.2133 135.207 65.8C135.794 65.6933 136.527 65.4933 137.407 65.2C138.287 64.88 139.127 64.4933 139.927 64.04C140.754 63.5867 141.46 63.0667 142.047 62.48C142.634 61.8667 142.927 61.2133 142.927 60.52ZM149.407 62.64C149.007 63.3067 148.5 64.04 147.887 64.84C147.3 65.64 146.62 66.44 145.847 67.24C145.1 68.0133 144.287 68.7733 143.407 69.52C142.554 70.24 141.66 70.8933 140.727 71.48C139.794 72.04 138.847 72.4933 137.887 72.84C136.954 73.16 136.034 73.32 135.127 73.32C134.007 73.32 133.14 73.04 132.527 72.48C131.914 71.8933 131.607 71.0667 131.607 70C131.607 68.8267 131.954 67.6 132.647 66.32C133.367 65.0133 134.274 63.8133 135.367 62.72C136.46 61.6267 137.66 60.72 138.967 60C140.274 59.28 141.527 58.92 142.727 58.92C143.394 58.92 143.914 59.0667 144.287 59.36C144.66 59.6267 144.847 60.0267 144.847 60.56C144.847 61.2 144.5 61.8267 143.807 62.44C143.114 63.0267 142.26 63.5733 141.247 64.08C140.26 64.56 139.194 65 138.047 65.4C136.9 65.7733 135.887 66.0533 135.007 66.24C134.714 66.7733 134.474 67.3733 134.287 68.04C134.1 68.7067 134.007 69.3733 134.007 70.04C134.007 70.36 134.034 70.68 134.087 71C134.167 71.2933 134.274 71.5733 134.407 71.84C134.567 72.08 134.767 72.28 135.007 72.44C135.274 72.6 135.594 72.68 135.967 72.68C136.847 72.68 137.874 72.4 139.047 71.84C140.247 71.2533 141.46 70.48 142.687 69.52C143.914 68.56 145.087 67.4667 146.207 66.24C147.327 65.0133 148.287 63.7467 149.087 62.44L149.407 62.64ZM170.994 45.32C169.954 46.9733 168.821 48.72 167.594 50.56C166.367 52.4 165.141 54.2267 163.914 56.04C162.687 57.8533 161.501 59.6133 160.354 61.32C159.234 63 158.234 64.5467 157.354 65.96C156.474 67.3733 155.767 68.6 155.234 69.64C154.727 70.6533 154.474 71.4 154.474 71.88C154.474 72.1733 154.541 72.4133 154.674 72.6C154.834 72.76 155.061 72.84 155.354 72.84C156.021 72.84 156.781 72.5733 157.634 72.04C158.487 71.5067 159.514 70.6667 160.714 69.52C161.754 68.5067 162.767 67.3867 163.754 66.16C164.741 64.9067 165.594 63.68 166.314 62.48L166.634 62.64C166.394 63.0667 166.074 63.5733 165.674 64.16C165.301 64.72 164.874 65.3067 164.394 65.92C163.941 66.5333 163.447 67.16 162.914 67.8C162.381 68.4133 161.834 69 161.274 69.56C160.207 70.6533 159.154 71.56 158.114 72.28C157.074 72.9733 156.114 73.32 155.234 73.32C154.381 73.32 153.741 73.1467 153.314 72.8C152.914 72.4267 152.714 71.96 152.714 71.4C152.714 70.8933 152.821 70.4 153.034 69.92C153.247 69.44 153.461 69.0133 153.674 68.64L153.594 68.6C153.167 69.08 152.687 69.6 152.154 70.16C151.647 70.6933 151.101 71.2 150.514 71.68C149.927 72.16 149.301 72.56 148.634 72.88C147.994 73.1733 147.327 73.32 146.634 73.32C145.674 73.32 144.927 73.0267 144.394 72.44C143.887 71.8533 143.634 71.16 143.634 70.36C143.634 69.24 144.021 68.0133 144.794 66.68C145.567 65.3467 146.527 64.1067 147.674 62.96C148.847 61.8133 150.101 60.8533 151.434 60.08C152.767 59.3067 154.007 58.92 155.154 58.92C156.007 58.92 156.687 59.1867 157.194 59.72C157.701 60.2533 157.941 60.9333 157.914 61.76H158.034L168.354 45.32H170.994ZM156.794 61.8C156.794 61.16 156.687 60.6 156.474 60.12C156.261 59.64 155.767 59.4 154.994 59.4C154.461 59.4 153.861 59.5867 153.194 59.96C152.554 60.3333 151.901 60.8267 151.234 61.44C150.567 62.0533 149.914 62.76 149.274 63.56C148.661 64.3333 148.114 65.1333 147.634 65.96C147.154 66.76 146.767 67.5467 146.474 68.32C146.181 69.0933 146.034 69.7867 146.034 70.4C146.034 70.96 146.141 71.4267 146.354 71.8C146.567 72.1733 146.954 72.36 147.514 72.36C147.994 72.36 148.541 72.1733 149.154 71.8C149.794 71.4267 150.461 70.9467 151.154 70.36C151.847 69.7467 152.527 69.0533 153.194 68.28C153.861 67.5067 154.461 66.7333 154.994 65.96C155.527 65.1867 155.954 64.44 156.274 63.72C156.621 62.9733 156.794 62.3333 156.794 61.8Z" fill="black"/>
</svg>
